<svg width="188" height="166" viewBox="0 0 188 166" fill="none" xmlns="http://www.w3.org/2000/svg">
<path d="M124.63 149.121C97.0441 157.968 41.3262 144.144 19.4348 118.9C4.47434 101.657 5.36087 71.6398 28.4208 56.2292C51.4808 40.8185 78.2033 53.9656 93.6632 41.6918C108.926 29.6032 133.625 11.5626 158.642 31.8549C176.103 46.0078 182.604 70.8924 174.185 100.474C169.283 117.625 159.732 137.888 124.63 149.121Z" fill="#EAF5FF"/>
<mask id="mask0" mask-type="alpha" maskUnits="userSpaceOnUse" x="9" y="22" width="169" height="130">
<path d="M124.63 149.121C97.0441 157.968 41.3262 144.144 19.4348 118.9C4.47434 101.657 5.36087 71.6398 28.4208 56.2292C51.4808 40.8185 78.2033 53.9656 93.6632 41.6918C108.926 29.6032 133.625 11.5626 158.642 31.8549C176.103 46.0078 182.604 70.8924 174.185 100.474C169.283 117.625 159.732 137.888 124.63 149.121Z" fill="#EAF5FF"/>
</mask>
<g mask="url(#mask0)">
<path fill-rule="evenodd" clip-rule="evenodd" d="M45.2055 115.46C45.2055 115.46 42.1966 112.157 40.6436 109.388C39.8185 107.882 38.5567 104.141 39.5273 102.198C39.5273 102.149 40.0126 103.412 40.6921 104.335C41.4201 105.404 42.3907 106.133 42.4392 106.084C42.6819 105.744 41.8568 104.676 41.1774 103.218C40.7406 102.295 40.1582 100.401 40.1582 100.401C40.1582 100.401 41.4201 98.0202 42.2936 97.0001C46.1762 92.5794 54.475 91.7536 59.9106 91.2678C61.4636 91.1221 62.3857 92.9681 63.9387 93.0652C64.1328 93.0652 65.249 93.0652 65.2976 93.3081C65.3946 93.5996 60.9783 94.0854 60.2018 94.5226C58.212 95.6399 57.3869 97.0001 57.3869 97.0001C57.3869 97.0001 52.5823 98.5546 52.7764 99.8662C52.8735 100.498 57.2413 98.0688 57.2413 98.0688C57.2413 98.0688 55.5913 104.044 52.7279 107.785C49.9616 111.477 45.8364 114.634 45.2055 115.46Z" fill="#AAD5FB"/>
<path fill-rule="evenodd" clip-rule="evenodd" d="M42.0031 97.2918C42.0031 97.2918 44.5752 93.114 48.846 90.8794C56.2228 87.0417 59.1347 87.0902 63.3084 86.8474C71.8984 86.3616 77.2854 89.7135 77.2854 89.7135C77.2854 89.7135 74.4221 89.3249 73.0632 89.3734C70.7822 89.4706 68.7439 89.8106 68.7439 89.8106C68.7439 89.8106 72.0926 89.9564 74.228 90.345C76.9942 90.8308 79.5664 91.4623 79.5664 91.4623C79.5664 91.4623 83.0121 95.7373 84.4681 98.2633C86.0696 100.984 87.1859 104.627 86.7491 105.064C86.4094 105.453 81.265 104.773 80.8768 104.676C77.8193 104.044 71.8499 101.324 71.8499 101.324C71.8499 101.324 70.6366 99.6235 70.7822 98.4091C70.9278 97.2432 71.1219 95.2029 71.1219 95.2029C71.1219 95.2029 70.1513 96.4659 69.8116 97.6318C69.4233 98.992 69.4233 100.061 69.4233 100.061C69.4233 100.061 63.9393 95.4458 58.0184 94.377C48.8945 92.9197 42.0031 97.2918 42.0031 97.2918Z" fill="#D4EAFF"/>
<path fill-rule="evenodd" clip-rule="evenodd" d="M72.9884 93.6122C69.5141 91.5353 60.9032 87.1568 50.0338 90.5268C49.9068 90.5661 49.7721 90.4949 49.7329 90.3677C49.6936 90.2405 49.7647 90.1055 49.8916 90.0661C60.9578 86.6352 69.7209 91.0974 73.2354 93.1984L73.2363 93.1989C79.6152 97.0495 83.475 100.519 86.7491 104.97C86.8279 105.077 86.8051 105.228 86.6982 105.307C86.5912 105.386 86.4406 105.363 86.3618 105.256C83.1327 100.866 79.3246 97.437 72.9884 93.6122Z" fill="#AAD5FB"/>
<path fill-rule="evenodd" clip-rule="evenodd" d="M34.2869 99.0404C34.2869 99.0404 31.9574 94.5712 31.2779 90.3934C30.0646 82.9608 29.7734 73.1965 29.7734 73.1965C29.7734 73.1965 32.9765 77.5686 34.3354 76.8399C35.6943 76.0626 30.0161 70.9619 30.0161 70.9619C30.0161 70.9619 32.103 61.7805 33.8501 57.1169C38.5576 44.3893 43.6049 37.0053 43.6049 37.0053C43.6049 37.0053 46.3712 39.5314 48.5551 45.5552C50.1081 49.8787 50.5935 58.8172 50.5935 58.8172C50.5935 58.8172 45.6918 61.5376 45.9344 63.7236C46.1771 65.8611 50.7876 61.0518 50.7876 61.0518C50.7876 61.0518 50.4479 66.8327 49.5743 72.5164C48.0213 82.5236 45.0609 86.3613 45.0609 86.3613C45.0609 86.3613 38.7518 86.8471 38.6547 88.5474C38.5576 90.1991 44.4785 88.0616 44.4785 88.0616C44.4785 88.0616 44.527 87.3815 41.1298 91.2192C37.7326 95.0084 34.2869 99.0404 34.2869 99.0404Z" fill="#D4EAFF"/>
<path fill-rule="evenodd" clip-rule="evenodd" d="M53.7502 95.8872C53.8551 95.969 53.8739 96.1205 53.7922 96.2256C49.0656 102.309 45.9741 109.311 44.4746 119.765C44.3742 120.713 44.0283 121.995 43.6414 123.302L43.6412 123.302C43.3995 124.109 43.067 125.311 42.7567 126.433C42.6007 126.998 42.4502 127.542 42.3198 128.005C42.2227 128.349 42.1365 128.65 42.0677 128.879C42.0015 129.099 41.9454 129.275 41.9091 129.353C41.9038 129.365 41.896 129.38 41.8858 129.397L41.8853 129.397C41.8806 129.405 41.8514 129.453 41.795 129.486C41.7575 129.508 41.6816 129.536 41.592 129.505C41.5088 129.475 41.47 129.412 41.4558 129.384C41.4309 129.335 41.4287 129.287 41.4282 129.277L41.4281 129.276C41.4255 129.223 41.4364 129.147 41.4481 129.073C41.475 128.906 41.5315 128.618 41.6224 128.187C41.6438 128.086 41.7254 128.013 41.8216 127.998C41.8332 127.957 41.8449 127.916 41.8568 127.874C41.9857 127.416 42.1352 126.875 42.2907 126.313C42.6018 125.188 42.9372 123.975 43.1803 123.164C43.5693 121.85 43.9022 120.608 43.9966 119.71L43.9975 119.701L43.9977 119.701C45.5074 109.172 48.6277 102.087 53.4126 95.9293C53.4943 95.8243 53.6454 95.8054 53.7502 95.8872Z" fill="#AAD5FB"/>
<path fill-rule="evenodd" clip-rule="evenodd" d="M2.40141 81.941C-2.64587 81.018 -2.16055 77.4718 -9.78 79.6093C-15.4582 81.1638 -17.0112 86.216 -22.4467 87.2847C-25.2616 87.8676 -32.3957 87.139 -26.8631 89.6651C-21.282 92.1912 -12.9345 92.1912 -9.24615 90.1508C-5.55776 88.1591 -2.98559 84.5157 -1.57818 85.2444C-0.607546 85.7788 -4.19888 89.0821 -4.19888 89.0821C-4.19888 89.0821 -1.33552 88.9364 8.95316 84.5157C13.8548 82.3782 7.44868 82.864 2.40141 81.941Z" fill="#AAD5FB"/>
<path fill-rule="evenodd" clip-rule="evenodd" d="M4.00249 127.605C4.05102 127.605 3.08039 124.448 2.7892 122.359C2.30389 118.958 3.27452 114.052 5.99228 112.254C8.37033 110.651 15.6986 112.254 15.6986 112.254C15.6986 112.254 21.0856 113.76 17.2031 115.121C13.3205 116.481 9.97187 116.626 7.64235 121.193C6.18641 124.059 5.21578 126.974 4.00249 127.605Z" fill="#AAD5FB"/>
<path fill-rule="evenodd" clip-rule="evenodd" d="M25.3574 122.067C25.3574 122.067 26.0853 120.076 25.9397 118.521C25.5515 114.975 23.5617 113.275 23.5617 113.275C23.5617 113.275 23.9014 116.481 23.222 115.946C22.5425 115.412 22.9793 112.594 22.9793 112.594C22.9793 112.594 21.2807 110.457 18.8541 110.165C16.4276 109.874 13.4671 111.331 13.4671 111.331C13.4671 111.331 12.3024 110.651 10.6523 110.603C7.35217 110.554 5.65356 112.4 5.65356 112.4C5.65356 112.4 8.08014 111.186 12.0597 113.032C15.1657 114.538 17.7379 116.141 19.6792 118.327C21.669 120.61 25.3574 122.067 25.3574 122.067Z" fill="#D4EAFF"/>
<path fill-rule="evenodd" clip-rule="evenodd" d="M27.552 107.759C27.552 107.759 28.9594 102.075 28.1344 96.9261C27.0182 89.7365 22.3106 83.907 22.3106 83.907C22.3106 83.907 21.2915 89.3964 20.0296 88.0362C18.7678 86.676 20.9032 82.3039 20.9032 82.3039C20.9032 82.3039 20.4664 80.4094 16.3898 79.2921C11.1969 77.8833 7.26586 79.875 4.54809 79.8264C1.83033 79.7779 0.956761 79.0492 -4.72142 78.6605C-8.55541 78.4177 -11.71 80.3122 -11.71 80.3122C-11.71 80.3122 -2.63457 79.6807 5.179 87.599C8.77033 91.2424 12.2161 95.0801 12.2161 95.0801C12.2161 95.0801 18.0884 94.0114 19.3017 96.3432C20.0782 97.8977 13.3323 97.0233 13.3323 97.0233C13.3323 97.0233 15.2736 99.6951 19.0105 102.464C22.7474 105.233 27.552 107.759 27.552 107.759Z" fill="#D4EAFF"/>
<path fill-rule="evenodd" clip-rule="evenodd" d="M43.4586 37.3521C43.5886 37.3249 43.7161 37.4085 43.7433 37.5388C45.5994 46.4374 43.4988 57.1746 41.8992 64.8892C40.9455 69.5893 39.8594 73.6066 38.8112 77.4839C38.4707 78.7434 38.1342 79.988 37.8075 81.2365C36.4745 86.331 35.301 91.503 34.6718 98.0432L34.6718 98.0437C33.994 104.925 34.0425 112.048 34.9137 118.927L34.9138 118.928C35.1243 120.614 35.4618 122.322 35.799 124.029C35.9261 124.672 36.0531 125.315 36.1733 125.957C36.1932 126.063 36.213 126.17 36.2329 126.277C36.3596 126.959 36.4897 127.659 36.6556 128.323C36.6878 128.452 36.6095 128.583 36.4806 128.616C36.3517 128.648 36.2211 128.569 36.1888 128.44C36.0191 127.761 35.886 127.044 35.7595 126.363C35.7397 126.256 35.7201 126.151 35.7004 126.046C35.5822 125.415 35.4564 124.778 35.3301 124.138C34.9918 122.426 34.6493 120.692 34.4364 118.988C33.5604 112.071 33.5119 104.912 34.1929 97.9968C34.8256 91.4209 36.0058 86.2213 37.3421 81.1142C37.6706 79.8589 38.0082 78.6099 38.3494 77.3479C39.3968 73.4737 40.4774 69.4764 41.4278 64.7927L41.4281 64.7917C43.0315 57.0584 45.1045 46.4213 43.2723 37.6375C43.2451 37.5071 43.3285 37.3794 43.4586 37.3521ZM4.10233 80.0418C4.10459 79.9087 4.21411 79.8026 4.34696 79.8049C13.035 79.9531 20.2283 87.7456 24.2193 97.0994L24.2193 97.0995C26.0018 101.279 27.441 107.435 28.6093 113.361C29.2003 116.358 29.7207 119.289 30.1818 121.886C30.636 124.444 31.0326 126.678 31.3824 128.332C31.4099 128.462 31.3269 128.59 31.1969 128.618C31.0669 128.645 30.9392 128.562 30.9117 128.432C30.5627 126.781 30.1629 124.531 29.7063 121.96C29.2438 119.357 28.723 116.425 28.1373 113.454C26.9688 107.527 25.5373 101.417 23.7769 97.289C19.8087 87.9886 12.7338 80.4302 4.33877 80.287C4.20592 80.2847 4.10007 80.175 4.10233 80.0418ZM13.5185 111.356C13.5315 111.223 13.6491 111.126 13.7813 111.139C17.0911 111.463 19.8119 113.404 21.8428 115.707C23.8739 118.01 25.2369 120.7 25.829 122.577L25.8296 122.578C26.2208 123.851 26.5137 125.122 26.8049 126.434C26.9488 127.058 27.1031 127.769 27.0535 128.439V128.527C27.0535 128.661 26.9458 128.769 26.813 128.769C26.6801 128.769 26.5724 128.661 26.5724 128.527V128.43C26.5724 128.424 26.5726 128.418 26.5731 128.412C26.6184 127.823 26.4825 127.177 26.3359 126.541L26.3355 126.54C26.0444 125.229 25.7551 123.974 25.37 122.721C24.7973 120.906 23.4669 118.277 21.4823 116.026C19.4972 113.775 16.8796 111.927 13.7346 111.619C13.6024 111.606 13.5056 111.488 13.5185 111.356Z" fill="#AAD5FB"/>
<path opacity="0.3" fill-rule="evenodd" clip-rule="evenodd" d="M12.4776 112.264C12.526 112.388 12.4649 112.527 12.3412 112.576C6.65282 114.806 4.10125 121.235 4.48594 127.396C4.49424 127.529 4.39347 127.643 4.26087 127.651C4.12827 127.66 4.01405 127.559 4.00575 127.426C3.61395 121.151 6.2067 114.463 12.1659 112.127C12.2896 112.078 12.4292 112.14 12.4776 112.264Z" fill="#1E88E5"/>
<path fill-rule="evenodd" clip-rule="evenodd" d="M21.4113 127.658H45.4678L42.2603 150.321H24.6188L21.4113 127.658Z" fill="#D4EAFF"/>
<path d="M172.289 61.0929H137.565L119.759 156.458H87.2379L87.2726 156.515C88.4411 158.187 89.9972 159.553 91.8087 160.498C93.6203 161.443 95.6341 161.939 97.6792 161.944H161.824C165.875 161.956 169.804 160.561 172.933 157.999C176.062 155.437 178.195 151.868 178.966 147.908C178.966 147.776 179.007 147.643 179.03 147.511L188.014 78.9983C188.523 75.128 187.571 71.2074 185.343 67.996L185.262 67.8693C183.809 65.781 181.871 64.074 179.612 62.894C177.352 61.714 174.84 61.096 172.289 61.0929Z" fill="#AAD5FB"/>
<path d="M110.498 125.779L86.9816 123.587C84.4479 123.374 81.8984 123.684 79.4938 124.498C77.0891 125.312 74.8814 126.611 73.0097 128.315L72.8674 128.436C70.4798 130.609 68.7096 133.368 67.7335 136.436C66.7574 139.503 66.6096 142.774 67.3048 145.92L70.3972 160.024" fill="#212122"/>
<path d="M164.224 127.092C164.224 127.092 175.25 143.781 150.095 156.342H104.124L75.9125 204.858C72.1665 211.277 69.5347 214.112 65.0034 219.942L63.9423 221.267L63.4117 223.652L42.7185 224.977L45.1062 218.087L47.4939 210.932C50.6774 202.717 53.463 196.622 56.3548 189.95L75.4031 146.272C77.2215 142.074 79.938 138.324 83.362 135.286L83.4999 135.164C89.2715 130.043 96.7228 127.214 104.442 127.214L110.916 127.097" fill="#333333"/>
<path d="M127.317 156.524C129.423 156.526 131.502 156.044 133.384 155.116C135.266 154.189 136.9 152.841 138.155 151.182C143.53 144.042 155.431 132.282 175.534 132.282C175.534 132.282 172.359 158.237 146.114 158.237L127.305 157.776V156.524H127.317Z" fill="#AAD5FB"/>
<path d="M133.369 58.9777C153.057 52.3151 166.422 60.1174 170.525 75.8783C173.781 83.6285 164.761 115.466 164.761 127.687C155.415 134.07 115.362 127.687 116.632 127.687C117.902 127.687 127.508 108.116 121.549 98.2171C113.831 85.3869 113.682 65.6402 133.369 58.9777Z" fill="#D6001D"/>
<path d="M122.229 66.2707C118.19 72.7074 94.8592 111.877 94.8592 111.877L99.7752 123.529C99.7752 123.529 122.212 103.06 128.918 94.037C135.624 85.0135 122.229 66.2707 122.229 66.2707Z" fill="#D6001D"/>
<path d="M118.432 136.98L67.1145 125.882C66.4303 125.702 66.4663 124.168 67.1144 123.952L91.028 115.662C91.1721 115.626 91.3161 115.626 91.4241 115.662L141.983 128.842C142.307 128.914 142.523 129.238 142.487 129.562L142.415 130.786C142.379 131.074 142.163 131.326 141.875 131.398L119.044 137.016C118.864 137.052 118.648 137.052 118.432 136.98Z" fill="#2998FF"/>
<path d="M118.829 134.783L68.3781 122.324C68.234 122.288 68.234 122.072 68.3781 122.036L91.4247 113.825C91.4607 113.825 91.4967 113.825 91.5327 113.825L142.091 128.77C142.235 128.806 142.235 129.022 142.091 129.058L118.937 134.783C118.865 134.783 118.865 134.783 118.829 134.783Z" fill="#2998FF"/>
<path d="M120.195 134.531L118.503 134.927C118.287 134.963 118.071 134.963 117.855 134.927L70.7891 122.54C70.393 122.431 70.0329 122.143 69.8888 121.747L55.8448 88.7978C55.5927 88.1856 55.8808 87.9335 56.4569 87.5734L57.3212 87.1413C58.2215 86.7452 58.9057 86.7812 59.2658 86.8532L107.844 97.5123C108.312 97.6203 108.672 97.9444 108.852 98.4126L120.339 132.442C120.591 133.163 120.988 134.315 120.195 134.531Z" fill="#AAD5FB"/>
<path d="M117.496 135.503L66.9373 124.412C66.6852 124.34 66.5052 124.16 66.4332 123.944L55.594 88.7618C55.45 88.2577 55.8821 87.7536 56.4223 87.8616L106.549 99.0608C106.801 99.1328 106.981 99.2769 107.053 99.529L118.324 134.639C118.468 135.143 118.036 135.611 117.496 135.503Z" fill="#D4EAFF"/>
<path d="M87.9676 111.197C88.9399 114.006 88.4358 116.742 86.8873 117.283C85.3389 117.823 83.2863 115.95 82.314 113.141C81.3417 110.333 81.8459 107.596 83.3943 107.056C84.9428 106.515 86.9953 108.388 87.9676 111.197Z" fill="white"/>
<path d="M156.412 118.042L140.251 124.78C139.833 124.947 139.443 125.177 139.094 125.462C138.231 126.122 136.211 127.496 133.923 127.688C131.889 127.78 129.86 127.428 127.976 126.657L125.678 129.541C125.678 129.541 127.738 130.458 128.119 131.617C128.337 132.152 128.402 132.739 128.304 133.309L124.45 131.14C124.042 130.909 123.731 130.538 123.575 130.096C123.419 129.654 123.429 129.17 123.602 128.734L124.74 125.743L121.269 129.156C121.269 129.156 122.221 131.718 122.117 132.871C122.04 133.58 121.734 134.246 121.246 134.766L118.993 130.084C118.822 129.717 118.748 129.312 118.78 128.909C118.812 128.505 118.947 128.117 119.173 127.781L121.847 123.877L116.942 127.357C116.942 127.357 116.379 131.092 115.484 132.021C114.315 133.227 113.28 133.043 113.28 133.043L114.698 127.238C114.904 126.361 115.442 125.597 116.198 125.105L120.635 122.146L117.565 121.552C117.06 121.443 116.533 121.483 116.051 121.669L114.5 122.292C113.87 122.545 113.363 123.032 113.083 123.651C112.684 124.493 112.058 125.655 111.358 126.126C110.219 126.872 109.188 127.476 109.188 127.476L111.18 122.525C111.482 121.743 112.074 121.107 112.834 120.749L116.195 119.155C116.62 118.959 117.078 118.846 117.545 118.821L122.886 118.709L135.862 119.663C136.892 119.731 137.921 119.509 138.831 119.022L152.476 111.691L156.412 118.042Z" fill="#FFB8B8"/>
<path d="M157.14 59.0003C167.397 62.2566 197.063 100.845 190.192 107.13C183.321 113.414 154.662 122.781 144.242 124.93C141.452 125.506 137.989 118.134 137.989 118.134C139.161 115.789 167.593 101.203 167.593 101.203C167.593 101.203 160.331 94.9181 158.149 89.0241C153.851 77.3988 157.14 59.0003 157.14 59.0003Z" fill="#D6001D"/>
<path d="M144.241 125.42C142.06 125.42 140.195 123.059 139.511 122.212C138.99 121.528 136.51 119.013 137.064 117.971C138.236 115.659 162.317 103.971 166.779 101.235C165.216 99.835 159.484 94.3969 157.563 89.1541C157.433 88.7633 157.27 88.3726 157.172 87.9492C157.107 87.7538 157.237 87.5585 157.433 87.4933C157.628 87.4282 157.824 87.5585 157.889 87.7539C158.019 88.1446 158.149 88.5354 158.279 88.9261C160.396 94.7225 167.593 100.975 167.69 101.04C167.788 101.105 167.821 101.235 167.821 101.366C167.821 101.496 167.756 101.593 167.658 101.659C156 108.725 139.002 116.777 138.155 118.471C138.155 118.471 140.628 123.206 143.534 124.006C144.62 124.306 145.329 124.006 150.255 122.662C160.969 120.448 183.256 113.154 189.997 106.999C190.746 106.315 191.104 105.306 191.071 103.938C190.973 94.3317 172.575 71.6348 160.429 60.9864C160.266 60.8562 160.266 60.6282 160.396 60.4654C160.526 60.3026 160.754 60.3026 160.917 60.4328C173.161 71.1789 191.722 94.1689 191.82 103.938C191.82 105.534 191.397 106.739 190.485 107.553C183.549 113.87 161.327 121.314 150.255 123.626C147.422 124.114 146 125.42 144.241 125.42Z" fill="#333333"/>
<path d="M167.104 101.757C166.974 101.757 166.876 101.692 166.811 101.562C166.713 101.399 166.778 101.171 166.941 101.073C171.109 98.7286 178.208 96.6119 178.273 96.5794C178.469 96.5142 178.664 96.6445 178.729 96.8073C178.794 97.0027 178.664 97.1981 178.501 97.2632C178.436 97.2958 171.402 99.3798 167.332 101.692C167.234 101.757 167.169 101.757 167.104 101.757Z" fill="#333333"/>
<path d="M136.57 66.5705V58.6313L126.42 66.5705L129.992 76.3714H143.269L158.562 62.0888L154.017 57.7207L136.57 66.5705Z" fill="#D6001D"/>
<path fill-rule="evenodd" clip-rule="evenodd" d="M152.92 56.298L149.818 47.1486L153.543 24.9084L125.447 29.0059C125.447 29.0059 125.408 31.4709 126.027 35.4698C126.131 36.4607 124.785 41.6134 124.191 43.5352C124.112 43.7238 124.129 43.889 124.244 44.0306C124.358 44.1723 124.56 44.2079 124.763 44.2435C125.459 44.2442 126.252 44.2215 126.252 44.2215L126.502 47.5478C126.502 47.5478 127.48 47.3956 128.158 47.2312C129.128 46.9963 130.855 46.4085 130.855 46.4085C130.855 46.4085 129.664 47.3743 128.73 47.9395C128.069 48.269 126.615 48.6212 126.615 48.6212C126.615 48.6212 127.368 51.0635 127.542 52.7149C127.827 56.3715 137.443 52.3482 137.443 52.3482L138.433 61.7612L139.005 66.0393L149.074 59.5449L152.92 56.298Z" fill="#FFB8B8"/>
<mask id="mask1" mask-type="alpha" maskUnits="userSpaceOnUse" x="123" y="24" width="33" height="51">
<path fill-rule="evenodd" clip-rule="evenodd" d="M154.604 56.8305L150.561 46.6424L155.216 24.9656L125.783 31.7032C125.783 31.7032 125.657 34.0684 126.164 37.837C126.238 38.7757 124.655 43.8463 123.97 45.7466C123.881 45.9352 123.893 46.0917 124.007 46.2159C124.122 46.3402 124.332 46.354 124.541 46.3679C125.267 46.2989 126.094 46.1978 126.094 46.1978L126.24 49.359C126.24 49.359 127.265 49.1152 127.978 48.8899C128.996 48.5679 130.818 47.8319 130.818 47.8319C130.818 47.8319 129.543 48.8762 128.549 49.5111C127.848 49.893 126.32 50.3759 126.32 50.3759C126.32 50.3759 127.021 52.6399 127.145 54.2044C127.316 57.6785 137.48 52.862 137.48 52.862L138.186 61.7797L139.614 74.558L148.977 61.4369L154.604 56.8305Z" fill="#FFB8B8"/>
</mask>
<g mask="url(#mask1)">
<path opacity="0.1" fill-rule="evenodd" clip-rule="evenodd" d="M129.253 56.8497C129.253 56.8497 133.551 55.8391 136.9 54.2537C140.248 52.6682 144.03 49.9287 144.03 49.9287C144.03 49.9287 141.956 52.3963 141.033 56.9991C140.427 60.2066 139.702 64.4728 139.702 64.4728L132.79 61.3776L129.253 56.8497Z" fill="#DE1414"/>
</g>
<path fill-rule="evenodd" clip-rule="evenodd" d="M129.491 35.3919C129.456 35.0581 129.904 34.6929 130.378 34.5781C130.852 34.4632 131.243 34.7108 131.278 35.0445C131.305 35.2949 131.23 35.7408 131.256 35.9911C131.291 36.3248 130.843 36.69 130.369 36.8049C129.895 36.9197 129.504 36.6722 129.469 36.3384C129.561 36.0594 129.517 35.6422 129.491 35.3919Z" fill="#212122"/>
<path fill-rule="evenodd" clip-rule="evenodd" d="M129.109 33.3865C130.503 32.8352 131.819 32.8576 132.571 33.4273C132.661 33.4953 132.815 33.4791 132.916 33.3912C133.017 33.3032 133.026 33.1768 132.937 33.1088C132.023 32.4159 130.486 32.4289 128.969 33.0293C128.839 33.0804 128.766 33.2019 128.805 33.3006C128.844 33.3992 128.98 33.4377 129.109 33.3865Z" fill="#333333"/>
<path fill-rule="evenodd" clip-rule="evenodd" d="M148.597 45.6576C148.597 45.6576 152.777 43.5197 151.848 40.179C151.383 38.5087 150.901 37.5717 152.475 35.2498C154.865 31.5978 158.168 24.8106 154.999 21.1173C152.592 18.2936 148.787 19.4505 148.787 19.4505C148.787 19.4505 147.215 14.5635 140.873 15.277C132.927 16.214 129.602 20.0904 128.302 21.3748C127.256 22.3549 126.021 19.7359 121.537 20.8129C114.065 22.6079 115.662 27.732 116.653 28.9517C117.644 30.1714 118.788 31.9216 121.224 32.3085C123.659 32.6953 130.867 32.0168 136.778 29.9489C140.659 28.6116 141.968 27.4062 141.968 27.4062C141.968 27.4062 141.941 28.9518 142.507 30.6786C143.234 33.0149 143.92 34.065 143.92 34.065C143.92 34.065 144.703 32.419 145.926 32.2063C147.437 32.0052 147.851 33.2016 147.731 33.8783C147.397 36.1455 144.815 37.0897 144.815 37.0897L148.597 45.6576Z" fill="#212122"/>
<mask id="mask2" mask-type="alpha" maskUnits="userSpaceOnUse" x="115" y="16" width="42" height="28">
<path fill-rule="evenodd" clip-rule="evenodd" d="M148.388 43.3733C148.388 43.3733 152.694 41.0216 151.867 38.0527C151.454 36.5682 150.997 35.7565 152.67 33.483C155.216 29.915 158.794 23.3921 155.71 20.3123C153.368 17.9562 149.475 19.3747 149.475 19.3747C149.475 19.3747 148.049 15.0515 141.601 16.3043C133.52 17.9134 130.02 21.7749 128.659 23.0732C127.566 24.0689 126.404 21.7893 121.826 23.1989C114.195 25.5483 115.638 30.0859 116.601 31.1083C117.563 32.1306 118.662 33.624 121.116 33.7476C123.57 33.8711 130.894 32.5685 136.952 30.1171C140.929 28.5263 142.296 27.2995 142.296 27.2995C142.296 27.2995 142.215 28.7164 142.73 30.243C143.386 32.312 144.045 33.208 144.045 33.208C144.045 33.208 144.895 31.6277 146.141 31.3174C147.678 30.9905 148.057 32.0461 147.913 32.6767C147.497 34.7828 144.849 35.8911 144.849 35.8911L148.388 43.3733Z" fill="#212122"/>
</mask>
<g mask="url(#mask2)">
<path fill-rule="evenodd" clip-rule="evenodd" d="M121.241 23.0015C121.17 23.0025 121.087 23.0519 121.056 23.1118C120.955 23.305 120.941 23.4817 120.951 23.6376C120.956 23.7159 120.968 23.7914 120.979 23.862L120.98 23.8669C120.99 23.9366 121 24.0009 121.004 24.0629C121.063 24.9455 121.417 25.72 121.962 26.355L121.963 26.3557C123.907 28.5463 127.31 29.831 132.149 28.0974C134.515 27.2498 136.658 25.8398 138.712 24.316C139.419 23.791 140.114 23.2542 140.804 22.7213C142.128 21.6987 143.433 20.6903 144.775 19.8065L144.777 19.8053C146.951 18.3474 149.025 17.2723 151.443 17.0089C151.517 17.0009 151.595 16.9462 151.618 16.8868C151.641 16.8274 151.6 16.7858 151.526 16.7938C149.01 17.0678 146.857 18.1908 144.654 19.6681C143.298 20.5615 141.966 21.5904 140.633 22.6204C139.946 23.1504 139.26 23.6808 138.569 24.1931C136.526 25.7094 134.431 27.0827 132.136 27.9048C127.461 29.5802 124.138 28.3536 122.215 26.1881C121.684 25.5685 121.341 24.8159 121.284 23.9627C121.28 23.895 121.269 23.826 121.259 23.7582L121.257 23.7509C121.246 23.6797 121.236 23.6093 121.231 23.5374C121.221 23.3928 121.237 23.2517 121.312 23.1083C121.343 23.0483 121.311 23.0005 121.241 23.0015ZM144.718 14.8546C143.224 15.1814 141.743 15.781 140.381 16.6878L140.378 16.6901C139.364 17.3897 138.455 18.2002 137.559 19C137.349 19.1873 137.139 19.374 136.929 19.5585C135.816 20.5373 134.681 21.4631 133.316 22.1524L133.308 22.1567C132.295 22.7165 131.259 22.9582 130.292 22.9077C130.013 22.8801 129.726 22.7916 129.426 22.6973C129.415 22.6831 129.407 22.6639 129.4 22.6391C129.395 22.6239 129.392 22.6079 129.388 22.5906L129.387 22.5846C129.383 22.5695 129.38 22.5532 129.376 22.5378C129.367 22.5059 129.353 22.4611 129.311 22.4341C129.26 22.4006 129.182 22.4014 129.09 22.4342C129.013 22.4619 128.953 22.5275 128.957 22.5806C128.96 22.6306 129.018 22.6518 129.089 22.6312C129.093 22.6381 129.096 22.6477 129.1 22.6612C129.103 22.6734 129.106 22.6866 129.109 22.7021L129.11 22.7082C129.114 22.7257 129.118 22.7453 129.124 22.7649C129.135 22.8037 129.153 22.8479 129.191 22.8827C129.198 22.8895 129.207 22.8948 129.219 22.8983L129.225 22.9004C129.525 22.9948 129.838 23.0934 130.15 23.1237L130.156 23.1243C131.181 23.1785 132.296 22.9224 133.39 22.3185C134.813 21.5987 135.986 20.6382 137.102 19.6567C137.318 19.4672 137.531 19.2772 137.743 19.0879C138.638 18.29 139.519 17.5046 140.505 16.8241C141.809 15.9563 143.231 15.3791 144.675 15.063C144.752 15.0463 144.823 14.9861 144.835 14.9285C144.847 14.871 144.794 14.8379 144.718 14.8546ZM124.609 22.3668C124.637 22.3388 124.653 22.3065 124.651 22.2778C124.651 22.2679 124.649 22.2579 124.647 22.2491C124.646 22.2438 124.642 22.2243 124.625 22.2101C124.617 22.2031 124.588 22.1818 124.526 22.1946C124.461 22.2083 124.417 22.248 124.402 22.2627C124.377 22.2883 124.366 22.3127 124.364 22.3179C124.35 22.349 124.338 22.3982 124.329 22.4423C124.31 22.5364 124.291 22.6702 124.296 22.7467L124.337 23.3583C124.475 23.9279 124.717 24.5375 125.152 24.9436C126.449 26.2786 128.911 26.9256 131.803 26.2377L131.805 26.2371C134.096 25.6601 136.087 24.4755 137.959 23.1256C138.802 22.5182 139.624 21.8746 140.439 21.2366C140.529 21.1662 140.619 21.0958 140.709 21.0256C141.614 20.3178 142.513 19.6222 143.433 18.9873C145.524 17.5548 147.577 16.2901 149.888 16.062C149.961 16.0547 150.04 16.0006 150.064 15.9411C150.088 15.8816 150.048 15.8392 149.974 15.8465C147.545 16.0863 145.397 17.4203 143.305 18.8537C142.372 19.498 141.462 20.2025 140.557 20.9101C140.467 20.9803 140.377 21.0506 140.287 21.1208C139.471 21.7597 138.657 22.3973 137.822 22.9987C135.972 24.3326 134.042 25.4753 131.836 26.0313C129.054 26.6927 126.663 26.0721 125.399 24.7709L125.397 24.7688C124.987 24.386 124.752 23.8027 124.616 23.242L124.576 22.6464C124.572 22.5894 124.587 22.4721 124.606 22.3818C124.607 22.3766 124.608 22.3716 124.609 22.3668ZM118.27 24.9743C118.266 24.9211 118.201 24.9005 118.124 24.9282C117.943 24.9928 117.841 25.1265 117.785 25.2351C117.728 25.3482 117.696 25.4779 117.679 25.5984C117.644 25.8343 117.658 26.0675 117.663 26.1421C117.536 27.2055 117.408 28.3701 118.07 29.1167C119.709 31.0869 123.682 32.0095 127.457 31.2798L127.459 31.2794C131.913 30.3732 136.944 27.7428 140.652 24.8325C141.455 24.2128 142.227 23.5684 142.992 22.9304C143.018 22.9081 143.045 22.8858 143.072 22.8635C143.864 22.2025 144.649 21.5493 145.46 20.9317C147.081 19.6975 148.797 18.6126 150.852 17.91C150.93 17.8835 150.991 17.8185 150.989 17.7647C150.987 17.7109 150.923 17.6887 150.846 17.7152C148.722 18.4415 146.956 19.5611 145.313 20.8124C144.492 21.4375 143.699 22.0973 142.908 22.7576L142.83 22.8223C142.063 23.4621 141.297 24.1015 140.501 24.7157L140.499 24.7169C136.838 27.5909 131.879 30.1801 127.508 31.0695C123.825 31.7812 119.926 30.8772 118.324 28.9507L118.323 28.9494C117.698 28.2454 117.815 27.138 117.943 26.0614C117.944 26.0568 117.944 26.0525 117.944 26.0482C117.939 25.9814 117.924 25.7543 117.957 25.5286C117.974 25.4147 118.001 25.3096 118.043 25.2292C118.086 25.1442 118.123 25.1256 118.136 25.1207C118.214 25.093 118.273 25.0275 118.27 24.9743ZM141.195 18.7261C138.931 20.4926 136.482 22.251 133.908 23.5119C132.113 24.3557 130.111 24.7364 128.82 24.1418C128.318 23.8555 128.004 23.5019 127.779 23.0471C127.772 23.0335 127.76 23.0232 127.743 23.017C127.743 23.0163 127.739 23.0135 127.732 23.0063C127.723 22.9953 127.712 22.9793 127.701 22.9586C127.678 22.9173 127.657 22.8631 127.642 22.808C127.626 22.7523 127.618 22.6999 127.618 22.6623C127.618 22.6574 127.618 22.6531 127.618 22.6495C127.641 22.6238 127.654 22.5952 127.652 22.5696C127.649 22.5164 127.583 22.4958 127.506 22.5234C127.394 22.5636 127.359 22.6464 127.352 22.666C127.34 22.6966 127.338 22.7276 127.338 22.7535C127.338 22.8078 127.349 22.8721 127.366 22.9329C127.383 22.9942 127.407 23.0564 127.434 23.1063C127.448 23.1311 127.463 23.1545 127.48 23.1735C127.489 23.1845 127.502 23.1975 127.519 23.2081C127.753 23.6735 128.081 24.0401 128.603 24.3369L128.608 24.3399C129.983 24.9754 132.1 24.563 133.966 23.6856L133.97 23.6838C136.594 22.3988 139.077 20.6131 141.348 18.841L141.351 18.8393C141.471 18.7431 141.591 18.647 141.71 18.5511C143.761 16.9068 145.7 15.3528 148.235 14.9479C148.31 14.9359 148.385 14.8785 148.403 14.8198C148.421 14.7611 148.374 14.7233 148.299 14.7353C145.64 15.16 143.602 16.7956 141.574 18.4224C141.448 18.5238 141.322 18.6251 141.195 18.7261ZM116.1 26.958C116.109 26.9416 116.113 26.925 116.112 26.9094C116.112 26.9062 116.111 26.9002 116.11 26.8939C116.109 26.8912 116.107 26.8842 116.103 26.8769C116.1 26.8732 116.095 26.8665 116.087 26.8602C116.078 26.8545 116.059 26.8438 116.024 26.8451C115.983 26.8466 115.941 26.8637 115.91 26.8847C115.883 26.9024 115.867 26.9201 115.861 26.9282C115.847 26.9444 115.841 26.9578 115.839 26.9611C115.835 26.9706 115.832 26.9786 115.832 26.9816C115.827 26.9951 115.824 27.0146 115.821 27.0331C115.813 27.0735 115.805 27.1335 115.796 27.1966C115.788 27.2599 115.78 27.3277 115.774 27.384C115.769 27.4372 115.765 27.4881 115.766 27.5119L115.829 28.4535C115.977 29.2913 116.37 29.9822 116.781 30.7038C116.818 30.7674 116.854 30.8314 116.89 30.8956L116.892 30.899C118.348 33.0821 122.314 33.7323 126.274 32.8662C128.643 32.3615 130.983 31.4542 133.303 30.5548L133.317 30.5494C136.803 29.0951 139.913 27.6379 142.87 25.3374C143.189 25.0999 143.473 24.8551 143.734 24.6064C143.728 24.634 143.722 24.6595 143.718 24.6809C143.715 24.6924 143.713 24.7055 143.712 24.7182C143.669 24.8055 143.648 24.8835 143.631 24.9513L143.63 24.9551C143.609 25.0319 143.592 25.0962 143.555 25.1667C143.552 25.1718 143.55 25.177 143.548 25.182C143.374 25.6697 143.406 26.1499 143.432 26.5457L143.433 26.5532C143.517 27.8279 143.801 29.0997 144.276 30.2349C144.276 30.2352 144.276 30.2355 144.276 30.2359L144.412 30.167L144.276 30.2339C144.276 30.2342 144.276 30.2346 144.276 30.2349C144.307 30.3193 144.339 30.404 144.371 30.4891C145.674 33.9811 147.165 37.9779 150.904 39.8629C150.954 39.8881 151.043 39.8644 151.102 39.81C151.161 39.7556 151.168 39.6911 151.118 39.6659C147.423 37.8033 145.945 33.8429 144.637 30.3368C144.607 30.2577 144.578 30.1787 144.548 30.1001L144.548 30.0981C144.078 28.9746 143.796 27.7151 143.713 26.453C143.686 26.0511 143.658 25.6023 143.815 25.155C143.814 25.1577 143.812 25.1604 143.811 25.1632L143.683 25.1649L143.818 25.1478C143.817 25.1502 143.816 25.1526 143.815 25.155C143.863 25.0622 143.884 24.9796 143.903 24.9084L143.904 24.9046C143.924 24.8278 143.942 24.7635 143.979 24.693C143.987 24.6761 143.992 24.6596 143.991 24.6446C143.991 24.645 143.99 24.645 143.991 24.6446C143.991 24.6432 143.991 24.6358 143.995 24.6187C143.998 24.5999 144.004 24.5755 144.011 24.547C144.025 24.4902 144.045 24.4204 144.065 24.3544C144.078 24.3129 144.09 24.2738 144.101 24.2408C144.294 24.0404 144.476 23.8388 144.654 23.6376C144.748 23.5314 144.841 23.4256 144.933 23.3202C144.991 23.2541 145.048 23.1881 145.106 23.1223C145.111 23.1276 145.117 23.1322 145.124 23.136C146.231 23.7086 146.664 24.6763 146.837 25.7922C146.923 26.3503 146.944 26.9435 146.952 27.5412C146.954 27.6772 146.956 27.8136 146.957 27.9498C146.961 28.4107 146.966 28.8701 146.995 29.3099C147.119 31.191 147.83 32.86 148.531 34.4527C149.015 35.7228 149.793 36.8886 150.855 37.8157L150.862 37.8222L152.107 38.6061C152.113 38.6095 152.119 38.6123 152.126 38.6145C152.219 38.6438 152.29 38.6812 152.368 38.7221L152.37 38.7232C152.446 38.7634 152.529 38.8068 152.638 38.8411L152.64 38.8419C152.69 38.8575 152.77 38.8829 152.84 38.8957C152.87 38.9014 152.918 38.9087 152.967 38.9017C152.989 38.8984 153.052 38.8865 153.11 38.8368C153.17 38.7846 153.174 38.736 153.172 38.7167C153.169 38.6635 153.103 38.6429 153.026 38.6705C153.017 38.6738 153.008 38.6776 152.999 38.6818C152.945 38.6712 152.877 38.6501 152.827 38.6341C152.733 38.6048 152.662 38.5673 152.584 38.5264L152.582 38.5254C152.509 38.4865 152.429 38.4445 152.325 38.4108L151.093 37.6341C150.047 36.7206 149.281 35.5708 148.803 34.3169L148.802 34.3143C148.1 32.7192 147.398 31.067 147.275 29.2096C147.246 28.7739 147.241 28.3198 147.237 27.8596C147.236 27.7228 147.234 27.5854 147.232 27.4479C147.224 26.8491 147.203 26.2483 147.115 25.6811C146.94 24.5463 146.496 23.5381 145.339 22.9398C145.322 22.9308 145.3 22.9278 145.276 22.93C145.461 22.722 145.65 22.516 145.85 22.3124C145.868 22.3298 145.899 22.3379 145.938 22.3322C147.175 22.1533 148.065 22.4295 148.882 22.8815C150.603 23.8085 151.022 25.611 150.76 27.6045C150.684 28.1069 150.555 28.6175 150.426 29.1303C150.38 29.3131 150.334 29.4961 150.29 29.6791C150.125 30.3725 149.993 31.0607 150.036 31.7063C150.116 32.9206 150.589 33.9936 151.345 34.8269C151.573 35.1671 151.896 35.4021 152.313 35.6L152.323 35.6049L152.73 35.7322C152.757 35.7408 152.794 35.7382 152.831 35.7249L153.051 35.6461L153.039 35.4534L152.877 35.5113L152.519 35.399C152.119 35.2087 151.817 34.9863 151.605 34.6675L151.6 34.6606C150.858 33.8448 150.394 32.794 150.316 31.606C150.275 30.983 150.401 30.3142 150.566 29.6245C150.609 29.4462 150.654 29.266 150.7 29.0849C150.829 28.5694 150.961 28.0463 151.038 27.5347L151.038 27.5332C151.305 25.5098 150.885 23.6485 149.101 22.687C148.277 22.2317 147.351 21.9339 146.051 22.1126C146.113 22.053 146.176 21.9937 146.24 21.9345L146.245 21.9302C146.715 21.4712 147.244 21.0208 147.811 20.5924C147.802 20.6437 147.845 20.6765 147.913 20.6671C150.175 20.3577 151.812 21.0923 152.753 22.3175C153.694 23.5428 153.928 25.2477 153.398 26.8494C153.275 27.2149 153.121 27.5918 152.963 27.9754C152.953 28.0006 152.943 28.0259 152.932 28.0512C152.785 28.4093 152.635 28.7727 152.507 29.1323C152.232 29.9026 152.052 30.6658 152.2 31.3505C152.201 31.3574 152.204 31.3638 152.208 31.3695C152.228 31.4007 152.259 31.4826 152.302 31.5985C152.307 31.6108 152.312 31.6236 152.317 31.6367C152.366 31.7676 152.427 31.9259 152.5 32.0699C152.572 32.212 152.659 32.348 152.765 32.4283C152.818 32.4682 152.883 32.5008 152.965 32.5064C153.055 32.5126 153.158 32.4857 153.261 32.4193C153.332 32.3739 153.363 32.3054 153.331 32.2663C153.299 32.2272 153.216 32.2324 153.146 32.2778C153.129 32.2883 153.12 32.2912 153.103 32.29C153.078 32.2883 153.042 32.2763 153 32.2445C152.917 32.1813 152.838 32.0648 152.768 31.9249C152.698 31.7869 152.638 31.6336 152.589 31.5027C152.584 31.488 152.578 31.4734 152.573 31.4591C152.536 31.3584 152.502 31.2691 152.475 31.223C152.339 30.5775 152.507 29.8522 152.776 29.0981C152.903 28.7436 153.05 28.385 153.198 28.0258C153.209 28.0009 153.219 27.976 153.229 27.9511C153.387 27.568 153.543 27.1846 153.669 26.8115C154.216 25.1568 153.973 23.4094 153.01 22.1556C152.049 20.9039 150.361 20.1322 148 20.4513C148.481 20.0981 148.987 19.7611 149.508 19.4479C149.863 19.4044 150.232 19.4433 150.598 19.5167C150.808 19.559 151.014 19.6117 151.213 19.6642C151.243 19.6721 151.273 19.6799 151.302 19.6878C151.468 19.7316 151.628 19.7741 151.779 19.8079C154.479 20.5951 155.681 22.3919 155.843 24.8409C155.882 25.4342 155.821 25.9948 155.665 26.5897L155.663 26.5947C155.639 26.7131 155.597 26.85 155.552 26.9922C155.529 27.0662 155.505 27.1415 155.483 27.2165C155.453 27.3227 155.427 27.4268 155.416 27.5163C155.405 27.6033 155.407 27.6893 155.446 27.7483C155.474 27.79 155.555 27.7888 155.627 27.7457C155.7 27.7027 155.736 27.634 155.708 27.5923C155.692 27.5685 155.685 27.521 155.695 27.4427C155.704 27.3669 155.727 27.274 155.757 27.1705C155.776 27.1055 155.797 27.0355 155.82 26.9641C155.866 26.8167 155.914 26.6635 155.94 26.5366C156.101 25.9249 156.163 25.3484 156.123 24.7407C155.958 22.2498 154.732 20.4055 151.961 19.5987L151.955 19.597C151.807 19.5641 151.65 19.5227 151.484 19.4785C151.454 19.4706 151.424 19.4627 151.393 19.4547C151.194 19.4021 150.983 19.3479 150.766 19.3043C150.494 19.2498 150.205 19.2103 149.91 19.2127C150.898 18.6511 151.929 18.1795 152.933 17.8479C153.01 17.8224 153.073 17.7577 153.072 17.7035C153.072 17.6493 153.009 17.626 152.931 17.6516C151.783 18.0306 150.605 18.5854 149.492 19.2467C149.457 19.2523 149.421 19.2587 149.386 19.2658C149.31 19.2813 149.237 19.3408 149.224 19.3987C149.223 19.4025 149.223 19.4061 149.222 19.4097C148.045 20.1344 146.95 20.9745 146.057 21.8452C145.55 22.3116 145.128 22.795 144.715 23.2672C144.624 23.371 144.534 23.4744 144.443 23.5769C144.301 23.7376 144.158 23.8968 144.01 24.054C143.976 24.0652 143.95 24.0826 143.935 24.0939C143.917 24.1078 143.906 24.1205 143.901 24.1268C143.89 24.1397 143.883 24.1509 143.88 24.1556C143.869 24.1748 143.859 24.1995 143.852 24.2193C143.852 24.2194 143.852 24.2193 143.852 24.2193C143.517 24.5638 143.153 24.898 142.724 25.2163L142.72 25.2196C139.818 27.478 136.76 28.9143 133.284 30.3646C130.957 31.2669 128.649 32.1608 126.318 32.6574C122.441 33.5054 118.57 32.8637 117.155 30.7446C117.119 30.6816 117.084 30.6191 117.048 30.5569C116.636 29.833 116.253 29.1589 116.108 28.3429L116.046 27.4116C116.045 27.402 116.048 27.3651 116.054 27.3074C116.059 27.2529 116.067 27.1868 116.075 27.1246C116.083 27.0622 116.092 27.0049 116.098 26.9678L116.1 26.958Z" fill="#9955CA"/>
</g>
</g>
<path fill-rule="evenodd" clip-rule="evenodd" d="M152.92 56.2981L149.818 47.1487L153.543 24.9085L125.447 29.006C125.447 29.006 125.408 31.471 126.027 35.47C126.132 36.4608 124.785 41.6135 124.192 43.5353C124.112 43.724 124.129 43.8891 124.244 44.0307C124.358 44.1724 124.561 44.208 124.763 44.2436C125.459 44.2444 126.252 44.2216 126.252 44.2216L126.502 47.5479C126.502 47.5479 127.48 47.3957 128.158 47.2313C129.128 46.9965 130.855 46.4086 130.855 46.4086C130.855 46.4086 129.664 47.3745 128.73 47.9396C128.069 48.2691 126.615 48.6214 126.615 48.6214C126.615 48.6214 127.369 51.0636 127.542 52.715C127.827 56.3716 137.443 52.3484 137.443 52.3484L138.433 61.7614L139.005 66.0394L149.075 59.5451L152.92 56.2981Z" fill="#FFB8B8"/>
<mask id="mask3" mask-type="alpha" maskUnits="userSpaceOnUse" x="123" y="24" width="33" height="51">
<path fill-rule="evenodd" clip-rule="evenodd" d="M154.604 56.8306L150.562 46.6425L155.216 24.9658L125.783 31.7034C125.783 31.7034 125.657 34.0685 126.164 37.8371C126.238 38.7758 124.655 43.8464 123.97 45.7467C123.881 45.9354 123.893 46.0918 124.008 46.2161C124.122 46.3403 124.332 46.3542 124.542 46.368C125.267 46.2991 126.094 46.1979 126.094 46.1979L126.24 49.3591C126.24 49.3591 127.265 49.1154 127.978 48.89C128.996 48.568 130.818 47.832 130.818 47.832C130.818 47.832 129.543 48.8764 128.549 49.5113C127.848 49.8931 126.32 50.3761 126.32 50.3761C126.32 50.3761 127.022 52.64 127.145 54.2045C127.316 57.6786 137.48 52.8621 137.48 52.8621L138.186 61.7798L139.614 74.5581L148.977 61.4371L154.604 56.8306Z" fill="#FFB8B8"/>
</mask>
<g mask="url(#mask3)">
<path opacity="0.1" fill-rule="evenodd" clip-rule="evenodd" d="M129.253 56.8498C129.253 56.8498 133.551 55.8392 136.9 54.2538C140.248 52.6684 144.03 49.9288 144.03 49.9288C144.03 49.9288 141.956 52.3964 141.033 56.9993C140.427 60.2067 139.702 64.4729 139.702 64.4729L132.79 61.3777L129.253 56.8498Z" fill="#DE1414"/>
</g>
<path fill-rule="evenodd" clip-rule="evenodd" d="M129.491 35.392C129.456 35.0583 129.904 34.6931 130.379 34.5782C130.853 34.4633 131.244 34.7109 131.279 35.0447C131.305 35.295 131.231 35.7409 131.257 35.9912C131.292 36.3249 130.844 36.6901 130.37 36.805C129.895 36.9199 129.504 36.6723 129.469 36.3385C129.562 36.0595 129.518 35.6423 129.491 35.392Z" fill="#212122"/>
<path fill-rule="evenodd" clip-rule="evenodd" d="M129.11 33.3867C130.503 32.8353 131.82 32.8577 132.571 33.4275C132.661 33.4954 132.816 33.4792 132.917 33.3913C133.018 33.3033 133.027 33.1769 132.937 33.109C132.023 32.4161 130.487 32.429 128.969 33.0294C128.84 33.0806 128.767 33.2021 128.805 33.3007C128.844 33.3994 128.981 33.4379 129.11 33.3867Z" fill="#333333"/>
<path fill-rule="evenodd" clip-rule="evenodd" d="M148.598 45.6577C148.598 45.6577 152.778 43.5198 151.849 40.1791C151.384 38.5088 150.901 37.5718 152.475 35.2499C154.866 31.5979 158.169 24.8107 154.999 21.1174C152.593 18.2938 148.788 19.4507 148.788 19.4507C148.788 19.4507 147.216 14.5636 140.874 15.2771C132.927 16.2141 129.603 20.0905 128.302 21.3749C127.257 22.355 126.021 19.736 121.538 20.813C114.065 22.6081 115.662 27.7321 116.654 28.9518C117.645 30.1716 118.789 31.9218 121.224 32.3086C123.66 32.6954 130.868 32.0169 136.779 29.949C140.66 28.6117 141.969 27.4063 141.969 27.4063C141.969 27.4063 141.941 28.9519 142.508 30.6787C143.234 33.015 143.92 34.0651 143.92 34.0651C143.92 34.0651 144.704 32.4191 145.926 32.2064C147.438 32.0053 147.852 33.2017 147.732 33.8785C147.398 36.1456 144.816 37.0898 144.816 37.0898L148.598 45.6577Z" fill="#212122"/>
<mask id="mask4" mask-type="alpha" maskUnits="userSpaceOnUse" x="115" y="16" width="42" height="28">
<path fill-rule="evenodd" clip-rule="evenodd" d="M148.389 43.3734C148.389 43.3734 152.695 41.0218 151.868 38.0528C151.455 36.5683 150.998 35.7566 152.671 33.4831C155.217 29.9151 158.795 23.3922 155.711 20.3124C153.369 17.9563 149.476 19.3748 149.476 19.3748C149.476 19.3748 148.05 15.0516 141.602 16.3044C133.521 17.9135 130.021 21.775 128.66 23.0733C127.567 24.069 126.405 21.7894 121.827 23.199C114.196 25.5484 115.639 30.0861 116.602 31.1084C117.564 32.1307 118.663 33.6241 121.117 33.7477C123.571 33.8713 130.895 32.5686 136.953 30.1173C140.93 28.5264 142.297 27.2996 142.297 27.2996C142.297 27.2996 142.216 28.7165 142.731 30.2431C143.387 32.3121 144.046 33.2081 144.046 33.2081C144.046 33.2081 144.896 31.6278 146.142 31.3175C147.679 30.9906 148.058 32.0462 147.914 32.6768C147.498 34.783 144.85 35.8912 144.85 35.8912L148.389 43.3734Z" fill="#212122"/>
</mask>
<g mask="url(#mask4)">
<path fill-rule="evenodd" clip-rule="evenodd" d="M121.242 23.0016C121.171 23.0026 121.088 23.052 121.057 23.1119C120.955 23.3051 120.942 23.4818 120.952 23.6378C120.957 23.716 120.969 23.7915 120.98 23.8621L120.981 23.867C120.991 23.9367 121.001 24.001 121.005 24.0631C121.064 24.9457 121.418 25.7202 121.963 26.3552L121.964 26.3559C123.908 28.5464 127.311 29.8311 132.15 28.0975C134.515 27.2499 136.659 25.8399 138.713 24.3161C139.42 23.7911 140.115 23.2544 140.805 22.7214C142.129 21.6988 143.434 20.6904 144.776 19.8066L144.777 19.8054C146.952 18.3475 149.026 17.2724 151.444 17.009C151.518 17.001 151.596 16.9463 151.619 16.8869C151.642 16.8275 151.601 16.7859 151.527 16.7939C149.011 17.068 146.858 18.1909 144.655 19.6683C143.299 20.5616 141.967 21.5905 140.634 22.6205C139.947 23.1506 139.261 23.6809 138.57 24.1932C136.527 25.7095 134.432 27.0828 132.137 27.905C127.462 29.5803 124.139 28.3537 122.216 26.1882C121.685 25.5687 121.342 24.816 121.285 23.9628C121.281 23.8952 121.27 23.8261 121.26 23.7583L121.258 23.751C121.247 23.6799 121.237 23.6095 121.232 23.5375C121.222 23.393 121.238 23.2518 121.313 23.1084C121.344 23.0484 121.312 23.0007 121.242 23.0016ZM144.719 14.8547C143.225 15.1815 141.744 15.7811 140.382 16.6879L140.379 16.6902C139.365 17.3899 138.456 18.2003 137.56 19.0001C137.35 19.1874 137.14 19.3741 136.93 19.5586C135.817 20.5374 134.682 21.4632 133.317 22.1525L133.309 22.1568C132.296 22.7166 131.26 22.9584 130.293 22.9078C130.014 22.8803 129.727 22.7917 129.427 22.6974C129.416 22.6832 129.408 22.664 129.4 22.6393C129.396 22.624 129.393 22.608 129.389 22.5907L129.388 22.5847C129.384 22.5697 129.381 22.5533 129.377 22.538C129.368 22.506 129.354 22.4612 129.312 22.4342C129.261 22.4008 129.183 22.4015 129.091 22.4344C129.014 22.4621 128.954 22.5276 128.958 22.5808C128.961 22.6307 129.019 22.652 129.09 22.6314C129.094 22.6382 129.097 22.6478 129.101 22.6613C129.104 22.6736 129.107 22.6868 129.11 22.7022L129.111 22.7084C129.115 22.7258 129.119 22.7454 129.125 22.7651C129.136 22.8038 129.154 22.848 129.192 22.8828C129.199 22.8896 129.208 22.8949 129.22 22.8984L129.226 22.9006C129.526 22.9949 129.839 23.0935 130.151 23.1239L130.157 23.1244C131.182 23.1786 132.297 22.9225 133.391 22.3186C134.814 21.5988 135.987 20.6383 137.103 19.6568C137.319 19.4674 137.532 19.2773 137.744 19.088C138.639 18.2902 139.52 17.5047 140.506 16.8242C141.809 15.9564 143.232 15.3792 144.676 15.0632C144.753 15.0464 144.824 14.9862 144.836 14.9287C144.848 14.8711 144.795 14.838 144.719 14.8547ZM124.61 22.3669C124.638 22.3389 124.654 22.3066 124.652 22.2779C124.652 22.268 124.65 22.2581 124.648 22.2492C124.647 22.2439 124.643 22.2244 124.626 22.2103C124.618 22.2033 124.588 22.1819 124.527 22.1948C124.461 22.2084 124.418 22.2481 124.403 22.2628C124.378 22.2884 124.367 22.3128 124.365 22.3181C124.351 22.3491 124.339 22.3983 124.33 22.4425C124.311 22.5365 124.292 22.6703 124.297 22.7468L124.338 23.3584C124.476 23.928 124.718 24.5376 125.153 24.9437C126.45 26.2787 128.912 26.9257 131.804 26.2379L131.806 26.2372C134.097 25.6602 136.088 24.4756 137.96 23.1257C138.803 22.5183 139.625 21.8747 140.44 21.2367C140.53 21.1663 140.62 21.0959 140.71 21.0257C141.615 20.318 142.514 19.6223 143.434 18.9874C145.525 17.555 147.578 16.2902 149.889 16.0621C149.962 16.0548 150.041 16.0007 150.065 15.9412C150.089 15.8817 150.049 15.8394 149.975 15.8466C147.546 16.0864 145.398 17.4204 143.306 18.8538C142.373 19.4981 141.463 20.2026 140.558 20.9102C140.468 20.9804 140.378 21.0507 140.288 21.1209C139.472 21.7598 138.657 22.3974 137.823 22.9988C135.973 24.3327 134.043 25.4755 131.837 26.0314C129.055 26.6928 126.664 26.0722 125.4 24.771L125.398 24.7689C124.988 24.3862 124.753 23.8028 124.617 23.2421L124.577 22.6465C124.573 22.5895 124.588 22.4722 124.607 22.3819C124.608 22.3768 124.609 22.3718 124.61 22.3669ZM118.271 24.9744C118.267 24.9213 118.202 24.9006 118.125 24.9283C117.944 24.9929 117.842 25.1266 117.786 25.2352C117.728 25.3484 117.697 25.478 117.68 25.5985C117.645 25.8344 117.659 26.0676 117.664 26.1422C117.537 27.2056 117.409 28.3702 118.071 29.1168C119.71 31.087 123.683 32.0096 127.458 31.2799L127.46 31.2795C131.914 30.3733 136.945 27.7429 140.653 24.8326C141.456 24.2129 142.228 23.5685 142.993 22.9306C143.019 22.9083 143.046 22.886 143.073 22.8637C143.865 22.2026 144.65 21.5494 145.461 20.9318C147.082 19.6976 148.798 18.6128 150.853 17.9101C150.93 17.8836 150.992 17.8186 150.99 17.7648C150.988 17.711 150.924 17.6888 150.847 17.7153C148.723 18.4416 146.957 19.5612 145.314 20.8125C144.493 21.4376 143.7 22.0974 142.909 22.7577L142.831 22.8224C142.064 23.4622 141.298 24.1016 140.502 24.7158L140.5 24.717C136.839 27.591 131.88 30.1803 127.509 31.0696C123.826 31.7814 119.927 30.8773 118.325 28.9508L118.324 28.9495C117.699 28.2455 117.816 27.1381 117.944 26.0615C117.945 26.057 117.945 26.0526 117.945 26.0483C117.94 25.9815 117.925 25.7544 117.958 25.5287C117.975 25.4148 118.002 25.3097 118.044 25.2293C118.087 25.1444 118.124 25.1257 118.137 25.1208C118.215 25.0931 118.274 25.0276 118.271 24.9744ZM141.196 18.7262C138.932 20.4927 136.483 22.2512 133.909 23.512C132.114 24.3558 130.112 24.7366 128.821 24.142C128.319 23.8557 128.005 23.502 127.78 23.0472C127.773 23.0336 127.761 23.0233 127.744 23.0171C127.744 23.0165 127.74 23.0136 127.733 23.0064C127.724 22.9955 127.713 22.9795 127.702 22.9587C127.679 22.9174 127.658 22.8632 127.643 22.8081C127.627 22.7524 127.619 22.7001 127.619 22.6624C127.619 22.6575 127.619 22.6533 127.619 22.6497C127.642 22.6239 127.655 22.5953 127.653 22.5697C127.65 22.5165 127.584 22.4959 127.507 22.5236C127.395 22.5638 127.36 22.6465 127.353 22.6661C127.341 22.6967 127.339 22.7277 127.339 22.7536C127.339 22.8079 127.35 22.8722 127.367 22.933C127.384 22.9944 127.408 23.0565 127.435 23.1064C127.449 23.1313 127.464 23.1546 127.481 23.1736C127.49 23.1846 127.503 23.1976 127.52 23.2082C127.754 23.6736 128.082 24.0403 128.604 24.337L128.609 24.34C129.984 24.9755 132.101 24.5631 133.967 23.6857L133.971 23.684C136.595 22.3989 139.078 20.6133 141.349 18.8412L141.352 18.8394C141.472 18.7432 141.592 18.6471 141.711 18.5513C143.762 16.9069 145.701 15.353 148.236 14.948C148.311 14.936 148.386 14.8787 148.404 14.82C148.422 14.7612 148.375 14.7234 148.3 14.7354C145.641 15.1601 143.603 16.7957 141.575 18.4225C141.449 18.5239 141.323 18.6252 141.196 18.7262ZM116.101 26.9581C116.11 26.9417 116.114 26.9251 116.113 26.9096C116.113 26.9064 116.112 26.9004 116.111 26.894C116.11 26.8913 116.108 26.8844 116.104 26.877C116.101 26.8733 116.096 26.8666 116.088 26.8604C116.079 26.8546 116.06 26.8439 116.025 26.8452C115.984 26.8467 115.942 26.8638 115.911 26.8848C115.884 26.9025 115.868 26.9202 115.862 26.9283C115.848 26.9446 115.842 26.958 115.84 26.9612C115.836 26.9707 115.833 26.9787 115.832 26.9817C115.828 26.9952 115.825 27.0147 115.822 27.0332C115.814 27.0737 115.806 27.1336 115.797 27.1967C115.789 27.2601 115.781 27.3278 115.775 27.3841C115.77 27.4373 115.766 27.4882 115.767 27.512L115.83 28.4536C115.978 29.2914 116.371 29.9823 116.782 30.7039C116.819 30.7676 116.855 30.8315 116.891 30.8957L116.893 30.8992C118.349 33.0822 122.315 33.7324 126.275 32.8663C128.644 32.3616 130.984 31.4544 133.304 30.5549L133.318 30.5495C136.804 29.0953 139.914 27.638 142.871 25.3375C143.19 25.1 143.474 24.8552 143.735 24.6066C143.729 24.6341 143.723 24.6596 143.719 24.681C143.716 24.6925 143.714 24.7057 143.713 24.7183C143.67 24.8056 143.649 24.8836 143.631 24.9514L143.63 24.9552C143.61 25.032 143.593 25.0963 143.556 25.1668C143.553 25.172 143.551 25.1771 143.549 25.1822C143.375 25.6698 143.407 26.1501 143.433 26.5458L143.434 26.5534C143.518 27.8281 143.802 29.0998 144.277 30.235C144.277 30.2353 144.277 30.2357 144.277 30.236L144.413 30.1671L144.277 30.234C144.277 30.2344 144.277 30.2347 144.277 30.235C144.308 30.3194 144.34 30.4042 144.372 30.4892C145.675 33.9812 147.166 37.978 150.905 39.863C150.955 39.8882 151.044 39.8645 151.103 39.8101C151.162 39.7557 151.169 39.6912 151.119 39.666C147.424 37.8035 145.946 33.843 144.638 30.3369C144.608 30.2578 144.579 30.1788 144.549 30.1002L144.549 30.0982C144.079 28.9747 143.797 27.7152 143.714 26.4531C143.687 26.0512 143.659 25.6024 143.816 25.1551C143.815 25.1578 143.813 25.1605 143.812 25.1633L143.684 25.165L143.819 25.1479C143.818 25.1503 143.817 25.1527 143.816 25.1551C143.864 25.0623 143.885 24.9797 143.904 24.9085L143.905 24.9047C143.925 24.8279 143.943 24.7636 143.98 24.6931C143.988 24.6762 143.992 24.6597 143.991 24.6447C143.992 24.6451 143.991 24.6451 143.991 24.6447C143.992 24.6434 143.992 24.636 143.996 24.6188C143.999 24.6001 144.005 24.5756 144.012 24.5471C144.026 24.4903 144.046 24.4206 144.066 24.3546C144.079 24.313 144.091 24.2739 144.102 24.2409C144.295 24.0405 144.477 23.8389 144.655 23.6377C144.749 23.5315 144.842 23.4258 144.934 23.3204C144.992 23.2542 145.049 23.1882 145.107 23.1224C145.112 23.1277 145.118 23.1323 145.125 23.1361C146.232 23.7087 146.665 24.6764 146.838 25.7923C146.924 26.3504 146.945 26.9436 146.953 27.5413C146.955 27.6774 146.957 27.8137 146.958 27.9499C146.962 28.4108 146.967 28.8702 146.996 29.31C147.12 31.1911 147.831 32.8602 148.532 34.4528C149.016 35.7229 149.793 36.8887 150.856 37.8158L150.863 37.8223L152.108 38.6062C152.114 38.6096 152.12 38.6124 152.127 38.6146C152.22 38.6439 152.291 38.6813 152.369 38.7223L152.371 38.7233C152.447 38.7635 152.53 38.8069 152.639 38.8413L152.641 38.8421C152.691 38.8576 152.771 38.883 152.841 38.8958C152.871 38.9015 152.919 38.9088 152.968 38.9018C152.99 38.8985 153.053 38.8866 153.11 38.8369C153.171 38.7847 153.174 38.7361 153.173 38.7168C153.17 38.6636 153.104 38.643 153.027 38.6707C153.018 38.6739 153.009 38.6777 153 38.6819C152.946 38.6713 152.878 38.6502 152.828 38.6342C152.734 38.6049 152.663 38.5675 152.585 38.5265L152.583 38.5255C152.51 38.4866 152.43 38.4446 152.326 38.4109L151.094 37.6342C150.048 36.7207 149.282 35.571 148.804 34.317L148.803 34.3144C148.101 32.7193 147.399 31.0672 147.276 29.2097C147.247 28.774 147.242 28.3199 147.238 27.8597C147.237 27.7229 147.235 27.5855 147.233 27.448C147.225 26.8492 147.204 26.2484 147.116 25.6812C146.941 24.5464 146.497 23.5382 145.34 22.9399C145.323 22.9309 145.301 22.9279 145.277 22.9302C145.462 22.7222 145.65 22.5161 145.851 22.3125C145.869 22.3299 145.9 22.338 145.939 22.3323C147.176 22.1534 148.066 22.4296 148.883 22.8816C150.604 23.8086 151.023 25.6111 150.761 27.6046C150.685 28.107 150.556 28.6176 150.427 29.1304C150.381 29.3132 150.335 29.4962 150.291 29.6792C150.126 30.3726 149.994 31.0609 150.037 31.7064C150.117 32.9207 150.59 33.9938 151.346 34.8271C151.574 35.1672 151.897 35.4022 152.314 35.6001L152.324 35.605L152.731 35.7323C152.758 35.7409 152.795 35.7383 152.832 35.725L153.052 35.6462L153.04 35.4535L152.878 35.5115L152.52 35.3991C152.12 35.2088 151.818 34.9864 151.606 34.6676L151.601 34.6608C150.859 33.8449 150.395 32.7941 150.317 31.6061C150.275 30.9831 150.402 30.3143 150.567 29.6247C150.61 29.4463 150.655 29.2661 150.701 29.085C150.83 28.5695 150.962 28.0464 151.039 27.5349L151.039 27.5333C151.306 25.5099 150.886 23.6486 149.102 22.6871C148.278 22.2318 147.352 21.934 146.052 22.1128C146.114 22.0532 146.177 21.9938 146.241 21.9347L146.246 21.9303C146.716 21.4713 147.245 21.021 147.812 20.5925C147.803 20.6438 147.846 20.6766 147.914 20.6672C150.176 20.3578 151.813 21.0924 152.754 22.3176C153.695 23.543 153.929 25.2478 153.399 26.8495C153.276 27.215 153.122 27.592 152.964 27.9755C152.954 28.0007 152.944 28.026 152.933 28.0513C152.786 28.4094 152.636 28.7728 152.508 29.1324C152.233 29.9027 152.053 30.6659 152.201 31.3506C152.202 31.3575 152.205 31.3639 152.209 31.3696C152.229 31.4009 152.26 31.4827 152.303 31.5986C152.308 31.611 152.313 31.6237 152.318 31.6368C152.367 31.7677 152.428 31.926 152.501 32.07C152.573 32.2122 152.66 32.3481 152.766 32.4284C152.819 32.4683 152.884 32.5009 152.966 32.5065C153.056 32.5127 153.159 32.4859 153.262 32.4194C153.333 32.374 153.364 32.3055 153.332 32.2664C153.3 32.2273 153.217 32.2325 153.147 32.2779C153.13 32.2884 153.121 32.2913 153.104 32.2901C153.079 32.2884 153.043 32.2764 153.001 32.2446C152.918 32.1814 152.839 32.0649 152.768 31.925C152.699 31.787 152.639 31.6337 152.59 31.5028C152.585 31.4881 152.579 31.4736 152.574 31.4592C152.537 31.3585 152.503 31.2692 152.476 31.2231C152.34 30.5776 152.508 29.8523 152.777 29.0982C152.904 28.7437 153.051 28.3851 153.199 28.0259C153.21 28.001 153.22 27.9761 153.23 27.9512C153.388 27.5681 153.544 27.1847 153.67 26.8116C154.217 25.1569 153.974 23.4095 153.011 22.1557C152.05 20.904 150.362 20.1324 148.001 20.4514C148.482 20.0982 148.988 19.7612 149.509 19.448C149.864 19.4045 150.233 19.4434 150.599 19.5168C150.809 19.5591 151.015 19.6118 151.214 19.6643C151.244 19.6722 151.274 19.6801 151.303 19.6879C151.469 19.7317 151.629 19.7743 151.78 19.808C154.48 20.5952 155.682 22.392 155.844 24.841C155.883 25.4343 155.822 25.995 155.666 26.5898L155.664 26.5948C155.64 26.7132 155.598 26.8501 155.553 26.9924C155.53 27.0663 155.506 27.1417 155.484 27.2166C155.454 27.3228 155.428 27.4269 155.417 27.5164C155.406 27.6034 155.408 27.6894 155.447 27.7484C155.475 27.7901 155.556 27.7889 155.628 27.7459C155.701 27.7028 155.737 27.6341 155.709 27.5924C155.693 27.5687 155.686 27.5211 155.696 27.4428C155.705 27.367 155.728 27.2741 155.758 27.1706C155.777 27.1056 155.798 27.0356 155.821 26.9642C155.867 26.8168 155.915 26.6636 155.941 26.5367C156.102 25.925 156.164 25.3485 156.124 24.7408C155.959 22.2499 154.733 20.4056 151.962 19.5989L151.956 19.5971C151.808 19.5642 151.651 19.5228 151.485 19.4786C151.455 19.4707 151.425 19.4628 151.394 19.4548C151.195 19.4022 150.984 19.3481 150.767 19.3045C150.495 19.2499 150.206 19.2104 149.911 19.2129C150.899 18.6512 151.93 18.1797 152.934 17.848C153.011 17.8225 153.074 17.7578 153.073 17.7036C153.073 17.6494 153.01 17.6261 152.932 17.6517C151.784 18.0307 150.606 18.5855 149.493 19.2468C149.458 19.2524 149.422 19.2588 149.387 19.266C149.311 19.2815 149.238 19.341 149.225 19.3989C149.224 19.4026 149.224 19.4062 149.223 19.4098C148.046 20.1346 146.951 20.9746 146.058 21.8453C145.551 22.3117 145.129 22.7951 144.716 23.2673C144.625 23.3712 144.535 23.4745 144.444 23.577C144.302 23.7377 144.159 23.8969 144.011 24.0541C143.977 24.0653 143.951 24.0828 143.936 24.0941C143.918 24.1079 143.907 24.1206 143.901 24.1269C143.891 24.1398 143.884 24.151 143.881 24.1558C143.87 24.1749 143.86 24.1996 143.853 24.2195C143.853 24.2195 143.853 24.2194 143.853 24.2195C143.518 24.564 143.154 24.8981 142.725 25.2165L142.721 25.2197C139.819 27.4781 136.761 28.9144 133.285 30.3647C130.958 31.267 128.65 32.1609 126.319 32.6575C122.442 33.5056 118.571 32.8638 117.156 30.7447C117.12 30.6817 117.085 30.6192 117.049 30.557C116.637 29.8331 116.254 29.1591 116.109 28.343L116.047 27.4117C116.046 27.4021 116.049 27.3652 116.055 27.3075C116.06 27.253 116.068 27.1869 116.076 27.1247C116.084 27.0623 116.093 27.005 116.099 26.968L116.101 26.9581Z" fill="#9955CA"/>
</g>
<path fill-rule="evenodd" clip-rule="evenodd" d="M34.2861 99.0398C34.2861 99.0398 31.9566 94.5706 31.2772 90.3928C30.0639 82.9603 29.7727 73.196 29.7727 73.196C29.7727 73.196 32.9758 77.568 34.3347 76.8394C35.6935 76.0621 30.0154 70.9613 30.0154 70.9613C30.0154 70.9613 32.1022 61.78 33.8494 57.1164C38.5569 44.3888 43.6042 37.0048 43.6042 37.0048C43.6042 37.0048 46.3705 39.5309 48.5544 45.5547C50.1074 49.8782 50.5927 58.8166 50.5927 58.8166C50.5927 58.8166 45.691 61.5371 45.9337 63.7231C46.1764 65.8606 50.7868 61.0513 50.7868 61.0513C50.7868 61.0513 50.4471 66.8321 49.5736 72.5159C48.0205 82.5231 45.0601 86.3608 45.0601 86.3608C45.0601 86.3608 38.751 86.8466 38.654 88.5468C38.5569 90.1985 44.4777 88.0611 44.4777 88.0611C44.4777 88.0611 44.5263 87.3809 41.1291 91.2187C37.7319 95.0078 34.2861 99.0398 34.2861 99.0398Z" fill="#D4EAFF"/>
<path d="M43.4557 37.3522C43.5858 37.3249 43.7132 37.4085 43.7404 37.5388C45.5966 46.4374 43.496 57.1746 41.8964 64.8893C40.9426 69.5892 39.8566 73.6065 38.8083 77.4839L38.8083 77.4839L38.8082 77.4843C38.4678 78.7436 38.1313 79.9882 37.8047 81.2366C36.4717 86.331 35.2982 91.503 34.669 98.0432C34.1901 101.669 34.4644 101.847 34.1198 101.847C33.6855 101.847 34.0383 99.5866 34.1901 97.9969C34.8227 91.4209 36.003 86.2213 37.3393 81.1142C37.6677 79.8589 38.0054 78.6099 38.3465 77.3479C39.3939 73.4737 40.4746 69.4764 41.425 64.7928L41.4252 64.7918C43.0287 57.0584 45.1017 46.4213 43.2695 37.6375C43.2423 37.5071 43.3257 37.3794 43.4557 37.3522Z" fill="#AAD5FB"/>
</svg>
