<svg width="204" height="193" viewBox="0 0 204 193" fill="none" xmlns="http://www.w3.org/2000/svg">
<path d="M104.962 160.316C70.0176 161.841 35.2809 143.443 21.5376 114.868C12.1434 95.3478 19.8833 64.7748 44.8445 56.4192C69.8057 48.0636 94.0007 63.799 111.22 56.4192C128.213 49.1598 159.673 39.25 177.514 64.0712C189.97 81.3861 188.266 106.05 173.173 131.033C164.404 145.513 139.906 158.791 104.962 160.316Z" fill="#EAF5FF"/>
<mask id="mask0" mask-type="alpha" maskUnits="userSpaceOnUse" x="17" y="48" width="169" height="113">
<path d="M104.962 160.316C70.0176 161.841 35.2809 143.444 21.5376 114.868C12.1434 95.3479 19.8833 64.7748 44.8445 56.4192C69.8057 48.0637 94.0007 63.7991 111.22 56.4192C128.213 49.1598 159.673 39.25 177.514 64.0712C189.97 81.3862 188.266 106.05 173.173 131.033C164.404 145.513 139.906 158.791 104.962 160.316Z" fill="#EAF5FF"/>
</mask>
<g mask="url(#mask0)">
<path fill-rule="evenodd" clip-rule="evenodd" d="M165.879 132.673C165.879 132.673 162.85 129.254 161.286 126.388C160.456 124.829 159.185 120.957 160.163 118.946C160.163 118.896 160.651 120.203 161.335 121.159C162.068 122.265 163.045 123.019 163.094 122.969C163.338 122.617 162.508 121.51 161.824 120.002C161.384 119.047 160.798 117.086 160.798 117.086C160.798 117.086 162.068 114.622 162.947 113.566C166.856 108.99 175.21 108.135 180.682 107.632C182.245 107.481 183.173 109.392 184.737 109.493C184.932 109.493 186.056 109.493 186.105 109.744C186.202 110.046 181.757 110.549 180.975 111.001C178.972 112.158 178.141 113.566 178.141 113.566C178.141 113.566 173.305 115.175 173.5 116.532C173.598 117.186 177.995 114.672 177.995 114.672C177.995 114.672 176.334 120.857 173.451 124.729C170.666 128.55 166.514 131.819 165.879 132.673Z" fill="#AAD5FB"/>
<path opacity="0.2" fill-rule="evenodd" clip-rule="evenodd" d="M165.879 132.674C165.879 132.674 162.85 129.255 161.286 126.388C160.456 124.83 159.186 120.958 160.163 118.946C160.163 118.896 160.651 120.203 161.335 121.159C162.068 122.265 163.045 123.019 163.094 122.969C163.338 122.617 162.508 121.511 161.824 120.002C161.384 119.047 160.798 117.086 160.798 117.086C160.798 117.086 162.068 114.622 162.947 113.566C166.856 108.99 175.21 108.135 180.682 107.633C182.245 107.482 183.174 109.393 184.737 109.493C184.932 109.493 186.056 109.493 186.105 109.745C186.203 110.046 181.757 110.549 180.975 111.002C178.972 112.158 178.141 113.566 178.141 113.566C178.141 113.566 173.305 115.175 173.5 116.533C173.598 117.186 177.995 114.672 177.995 114.672C177.995 114.672 176.334 120.857 173.451 124.729C170.667 128.551 166.514 131.819 165.879 132.674Z" fill="#5C9FDB"/>
<path fill-rule="evenodd" clip-rule="evenodd" d="M162.654 113.868C162.654 113.868 165.244 109.543 169.543 107.23C176.969 103.258 179.9 103.308 184.102 103.057C192.749 102.554 198.172 106.023 198.172 106.023C198.172 106.023 195.29 105.621 193.922 105.671C191.626 105.772 189.574 106.124 189.574 106.124C189.574 106.124 192.945 106.275 195.094 106.677C197.879 107.18 200.469 107.834 200.469 107.834C200.469 107.834 203.937 112.259 205.403 114.873C207.015 117.689 208.139 121.46 207.699 121.913C207.357 122.315 202.179 121.611 201.788 121.511C198.71 120.857 192.701 118.041 192.701 118.041C192.701 118.041 191.479 116.281 191.626 115.024C191.772 113.817 191.968 111.705 191.968 111.705C191.968 111.705 190.991 113.013 190.649 114.22C190.258 115.628 190.258 116.734 190.258 116.734C190.258 116.734 184.737 111.957 178.777 110.851C169.592 109.342 162.654 113.868 162.654 113.868Z" fill="#D4EAFF"/>
<path fill-rule="evenodd" clip-rule="evenodd" d="M193.816 110.107C190.324 107.96 181.673 103.438 170.753 106.919C170.596 106.969 170.43 106.879 170.381 106.717C170.333 106.556 170.421 106.384 170.577 106.334C181.74 102.776 190.579 107.404 194.121 109.582L194.122 109.582C200.549 113.571 204.44 117.167 207.741 121.781C207.838 121.917 207.81 122.109 207.678 122.209C207.546 122.31 207.36 122.281 207.263 122.145C204.017 117.608 200.19 114.063 193.816 110.107Z" fill="#AAD5FB"/>
<path fill-rule="evenodd" clip-rule="evenodd" d="M154.885 115.677C154.885 115.677 152.54 111.051 151.856 106.727C150.635 99.0335 150.342 88.9265 150.342 88.9265C150.342 88.9265 153.566 93.452 154.934 92.6978C156.302 91.8933 150.586 86.6135 150.586 86.6135C150.586 86.6135 152.687 77.1099 154.445 72.2827C159.184 59.1084 164.265 51.4653 164.265 51.4653C164.265 51.4653 167.05 54.0801 169.249 60.3152C170.812 64.7905 171.3 74.0426 171.3 74.0426C171.3 74.0426 166.366 76.8585 166.61 79.1212C166.855 81.3337 171.496 76.3557 171.496 76.3557C171.496 76.3557 171.154 82.3394 170.275 88.2226C168.711 98.581 165.731 102.553 165.731 102.553C165.731 102.553 159.38 103.056 159.282 104.816C159.184 106.526 165.145 104.313 165.145 104.313C165.145 104.313 165.194 103.609 161.774 107.582C158.354 111.504 154.885 115.677 154.885 115.677Z" fill="#D4EAFF"/>
<path fill-rule="evenodd" clip-rule="evenodd" d="M174.513 112.369C174.642 112.473 174.665 112.665 174.564 112.799C169.813 119.086 166.704 126.324 165.196 137.136C165.094 138.123 164.744 139.454 164.355 140.806L164.355 140.807C164.112 141.641 163.777 142.885 163.465 144.046C163.308 144.63 163.156 145.193 163.025 145.673C162.927 146.03 162.84 146.342 162.771 146.579C162.705 146.806 162.647 146.992 162.608 147.078C162.603 147.09 162.594 147.109 162.582 147.129L162.581 147.13C162.576 147.139 162.541 147.199 162.471 147.24C162.425 147.268 162.332 147.304 162.221 147.264C162.119 147.226 162.071 147.147 162.053 147.111C162.023 147.049 162.02 146.99 162.02 146.978L162.02 146.977C162.017 146.915 162.029 146.829 162.041 146.755C162.068 146.581 162.125 146.281 162.216 145.835C162.24 145.719 162.324 145.633 162.427 145.603C162.436 145.572 162.444 145.54 162.453 145.507C162.583 145.034 162.733 144.475 162.89 143.893C163.203 142.728 163.541 141.472 163.786 140.631C164.178 139.271 164.511 137.989 164.606 137.066C164.606 137.063 164.606 137.059 164.607 137.055C166.128 126.148 169.272 118.805 174.096 112.422C174.197 112.289 174.383 112.265 174.513 112.369ZM162.07 146.819C162.07 146.82 162.07 146.82 162.07 146.82L162.07 146.819C162.07 146.819 162.07 146.819 162.07 146.819Z" fill="#AAD5FB"/>
<path fill-rule="evenodd" clip-rule="evenodd" d="M122.788 97.9778C117.707 97.0224 118.195 93.3517 110.525 95.5642C104.809 97.1733 103.245 102.403 97.7736 103.509C94.9399 104.112 87.7582 103.358 93.3277 105.973C98.9461 108.588 107.349 108.588 111.062 106.476C114.775 104.414 117.365 100.643 118.781 101.397C119.759 101.95 116.143 105.369 116.143 105.369C116.143 105.369 119.026 105.219 129.383 100.643C134.317 98.4303 127.869 98.9332 122.788 97.9778Z" fill="#AAD5FB"/>
<path fill-rule="evenodd" clip-rule="evenodd" d="M124.401 145.244C124.449 145.244 123.472 141.976 123.179 139.814C122.691 136.294 123.668 131.215 126.404 129.355C128.798 127.696 136.175 129.355 136.175 129.355C136.175 129.355 141.598 130.914 137.689 132.322C133.781 133.73 130.41 133.88 128.065 138.607C126.599 141.574 125.622 144.591 124.401 145.244Z" fill="#AAD5FB"/>
<path fill-rule="evenodd" clip-rule="evenodd" d="M145.897 139.512C145.897 139.512 146.63 137.45 146.483 135.841C146.092 132.171 144.089 130.411 144.089 130.411C144.089 130.411 144.431 133.729 143.747 133.176C143.063 132.623 143.503 129.707 143.503 129.707C143.503 129.707 141.793 127.494 139.35 127.192C136.907 126.891 133.927 128.399 133.927 128.399C133.927 128.399 132.755 127.695 131.094 127.645C127.771 127.595 126.062 129.505 126.062 129.505C126.062 129.505 128.504 128.248 132.51 130.159C135.637 131.718 138.227 133.377 140.181 135.64C142.184 138.003 145.897 139.512 145.897 139.512Z" fill="#D4EAFF"/>
<path fill-rule="evenodd" clip-rule="evenodd" d="M148.106 124.701C148.106 124.701 149.522 118.818 148.692 113.488C147.568 106.046 142.829 100.012 142.829 100.012C142.829 100.012 141.803 105.694 140.533 104.286C139.263 102.878 141.412 98.3529 141.412 98.3529C141.412 98.3529 140.973 96.3919 136.869 95.2353C131.641 93.7771 127.684 95.8387 124.948 95.7885C122.212 95.7382 121.333 94.9839 115.617 94.5816C111.757 94.3302 108.582 96.2913 108.582 96.2913C108.582 96.2913 117.718 95.6376 125.583 103.834C129.199 107.605 132.667 111.577 132.667 111.577C132.667 111.577 138.579 110.471 139.8 112.885C140.582 114.494 133.791 113.589 133.791 113.589C133.791 113.589 135.745 116.354 139.507 119.221C143.269 122.087 148.106 124.701 148.106 124.701Z" fill="#D4EAFF"/>
<path fill-rule="evenodd" clip-rule="evenodd" d="M164.108 51.7693C164.268 51.7347 164.426 51.8408 164.459 52.0063C166.33 61.2306 164.213 72.3565 162.603 80.3397C161.642 85.2064 160.548 89.367 159.493 93.3807C159.15 94.684 158.812 95.9719 158.483 97.2634C157.142 102.535 155.961 107.885 155.328 114.651L155.328 114.652C154.646 121.77 154.695 129.139 155.571 136.255L155.571 136.256C155.783 137.999 156.122 139.764 156.462 141.53C156.59 142.197 156.718 142.863 156.839 143.528C156.859 143.638 156.879 143.749 156.899 143.86C157.027 144.566 157.157 145.289 157.324 145.974C157.363 146.138 157.267 146.305 157.108 146.346C156.948 146.387 156.787 146.287 156.747 146.123C156.576 145.418 156.442 144.674 156.314 143.969C156.295 143.859 156.275 143.75 156.255 143.641C156.136 142.989 156.01 142.331 155.883 141.669C155.542 139.896 155.197 138.099 154.982 136.332C154.1 129.168 154.051 121.754 154.737 114.592C155.374 107.781 156.563 102.396 157.908 97.1081C158.239 95.8079 158.579 94.5146 158.923 93.2081C159.977 89.1982 161.064 85.063 162.021 80.2169L162.021 80.2156C163.636 72.2088 165.719 61.2101 163.878 52.1315C163.844 51.9661 163.947 51.8039 164.108 51.7693ZM124.445 96.0114C124.448 95.8424 124.583 95.7077 124.747 95.7106C133.527 95.8646 140.781 103.958 144.802 113.646L144.802 113.646C146.598 117.978 148.048 124.356 149.224 130.489C149.82 133.595 150.344 136.629 150.808 139.317C151.265 141.962 151.664 144.273 152.016 145.985C152.05 146.151 151.947 146.313 151.787 146.348C151.626 146.383 151.469 146.278 151.435 146.112C151.083 144.404 150.681 142.073 150.221 139.41C149.755 136.715 149.231 133.68 148.642 130.608C147.465 124.473 146.025 118.153 144.255 113.887C140.263 104.267 133.155 96.4704 124.737 96.3227C124.573 96.3198 124.442 96.1805 124.445 96.0114ZM133.924 128.42C133.94 128.251 134.086 128.128 134.249 128.145C137.599 128.482 140.35 130.502 142.4 132.892C144.45 135.282 145.826 138.073 146.424 140.023L146.425 140.025C146.819 141.345 147.114 142.662 147.408 144.02C147.552 144.664 147.709 145.407 147.659 146.11V146.2C147.659 146.369 147.526 146.506 147.362 146.506C147.198 146.506 147.065 146.369 147.065 146.2V146.099C147.065 146.091 147.065 146.083 147.066 146.075C147.111 145.475 146.976 144.816 146.828 144.157L146.828 144.154C146.535 142.797 146.244 141.501 145.857 140.206C145.283 138.335 143.947 135.62 141.955 133.297C139.962 130.973 137.338 129.071 134.191 128.754C134.028 128.738 133.908 128.588 133.924 128.42Z" fill="#AAD5FB"/>
<path fill-rule="evenodd" clip-rule="evenodd" d="M141.924 145.299H166.141L162.912 168.758H145.153L141.924 145.299Z" fill="#D4EAFF"/>
<path fill-rule="evenodd" clip-rule="evenodd" d="M98.6282 146.005L91.036 209.603C91.036 209.603 90.485 216.955 92.9953 225.043C98.7507 243.546 103.159 273.262 103.894 281.411C103.894 281.411 108.118 281.778 111.67 281.349C115.282 280.921 120.609 282.391 120.609 282.391C120.609 282.391 120.915 255.739 118.221 237.848C117.18 230.986 115.037 224.614 113.506 220.631C112.404 217.813 112.282 214.688 113.078 211.808C117.547 196.185 131.752 146.74 131.752 146.74L98.6282 146.005Z" fill="#4C277E"/>
<path fill-rule="evenodd" clip-rule="evenodd" d="M106.16 157.892L124.773 216.22C124.773 216.22 125.202 220.816 130.529 227.126C135.855 233.498 165.122 273.875 165.122 273.875C165.122 273.875 169.102 272.65 172.224 270.505C175.408 268.361 176.572 265.481 176.572 265.481C176.572 265.481 167.694 244.098 157.346 228.658C152.938 222.102 149.877 217.691 147.734 214.811C145.162 211.319 143.631 207.214 143.325 202.925C142.774 196.369 142.101 186.321 141.917 177.866C141.611 160.771 138.305 145.638 138.305 145.638L106.16 157.892Z" fill="#4C277E"/>
<mask id="mask1" mask-type="alpha" maskUnits="userSpaceOnUse" x="106" y="145" width="71" height="129">
<path fill-rule="evenodd" clip-rule="evenodd" d="M106.16 157.892L124.773 216.22C124.773 216.22 125.202 220.816 130.529 227.126C135.855 233.498 165.122 273.875 165.122 273.875C165.122 273.875 169.102 272.65 172.225 270.505C175.408 268.361 176.572 265.481 176.572 265.481C176.572 265.481 167.694 244.098 157.346 228.658C152.938 222.102 149.877 217.691 147.734 214.811C145.162 211.319 143.631 207.214 143.325 202.925C142.774 196.369 142.101 186.321 141.917 177.866C141.611 160.771 138.305 145.638 138.305 145.638L106.16 157.892Z" fill="#7945C1"/>
</mask>
<g mask="url(#mask1)">
<path fill-rule="evenodd" clip-rule="evenodd" d="M102.976 159.974C102.976 159.974 106.344 156.727 119.385 163.344C132.427 169.9 137.815 171.861 137.815 171.861C137.815 171.861 139.284 184.36 138.305 196.062C137.264 208.5 134.508 214.076 141.978 219.283C157.714 230.312 160.591 241.034 164.449 256.168C168.306 271.363 170.143 276.632 170.143 276.632L183.307 268.054L156.061 148.762L99.4865 151.152L102.976 159.974Z" fill="#7945C1"/>
</g>
<path fill-rule="evenodd" clip-rule="evenodd" d="M107.63 71.9297C107.63 71.9297 93.0577 86.5732 84.2409 95.396C79.8938 99.7462 74.7507 103.177 69.1178 105.444C57.8519 110.039 39.4225 117.514 39.4225 117.514L41.2593 125.786C41.2593 125.786 60.6072 121.864 74.3221 119.107C83.0164 117.392 91.0984 113.471 97.8334 107.772C105.977 100.91 116.018 92.455 116.018 92.455L107.63 71.9297Z" fill="#970519"/>
<mask id="mask2" mask-type="alpha" maskUnits="userSpaceOnUse" x="39" y="71" width="78" height="55">
<path fill-rule="evenodd" clip-rule="evenodd" d="M107.63 71.9297C107.63 71.9297 93.0576 86.5731 84.2409 95.396C79.8937 99.7461 74.7506 103.177 69.1177 105.444C57.8519 110.039 39.4225 117.514 39.4225 117.514L41.2593 125.786C41.2593 125.786 60.6071 121.864 74.3221 119.107C83.0163 117.392 91.0984 113.471 97.8334 107.772C105.977 100.91 116.018 92.455 116.018 92.455L107.63 71.9297Z" fill="#4C277E"/>
</mask>
<g mask="url(#mask2)">
<path fill-rule="evenodd" clip-rule="evenodd" d="M112.283 65.3124C112.283 65.3124 106.405 79.527 96.6086 93.5578C91.0369 101.523 81.6691 108.875 72.6687 111.51C60.362 115.125 39.7284 122.845 39.7284 122.845L32.8097 114.451L80.1996 86.2667L112.283 65.3124Z" fill="#D6001D"/>
</g>
<path fill-rule="evenodd" clip-rule="evenodd" d="M122.201 69.6624C115.65 65.251 104.751 71.1942 99.547 81.6713C93.363 94.1703 93.4855 97.5401 94.7713 103.422C98.2 118.739 100.037 125.785 98.8123 136.446C97.8939 144.411 94.71 160.709 94.71 160.709C94.71 160.709 110.629 159.055 122.14 162.731C140.202 168.552 152.692 156.42 152.692 156.42C152.692 156.42 145.284 145.759 138.61 131.912C130.406 114.818 133.406 114.328 132.304 101.033C131.263 87.7983 133.589 77.3212 122.201 69.6624Z" fill="#970519"/>
<mask id="mask3" mask-type="alpha" maskUnits="userSpaceOnUse" x="94" y="68" width="59" height="97">
<path fill-rule="evenodd" clip-rule="evenodd" d="M122.201 69.6624C115.65 65.251 104.751 71.1942 99.547 81.6713C93.3631 94.1703 93.4855 97.5401 94.7713 103.422C98.2 118.739 100.037 125.785 98.8123 136.446C97.8939 144.411 94.7101 160.709 94.7101 160.709C94.7101 160.709 110.629 159.055 122.14 162.731C140.202 168.552 152.692 156.42 152.692 156.42C152.692 156.42 145.284 145.759 138.61 131.912C130.406 114.818 133.406 114.328 132.304 101.033C131.263 87.7982 133.589 77.3212 122.201 69.6624Z" fill="#970519"/>
</mask>
<g mask="url(#mask3)">
<path fill-rule="evenodd" clip-rule="evenodd" d="M133.589 69.9685C133.589 69.9685 119.446 71.5615 121.344 85.9599C122.935 97.9687 116.078 102.503 105.241 102.319C89.0155 102.013 125.262 171.554 125.262 171.554L90.7299 170.206L89.5666 127.317L84.546 82.6513L101.628 57.8371L133.589 69.9685Z" fill="#D6001D"/>
</g>
<path fill-rule="evenodd" clip-rule="evenodd" d="M31.095 116.412L26.3805 116.841C26.3805 116.841 23.6865 118.066 23.1354 119.475C22.6456 120.946 22.1558 124.806 22.1558 124.806C22.1558 124.806 23.5028 124.867 23.8701 124.193C24.115 123.641 24.7885 122.416 24.7885 122.416L27.1152 122.6C27.1152 122.6 29.748 123.703 29.3194 122.232C28.8908 120.762 29.8704 120.21 30.2378 120.027C30.9725 119.659 32.3807 119.353 33.6053 119.965C34.0339 120.088 31.095 116.412 31.095 116.412Z" fill="#FFB8B8"/>
<path opacity="0.2" fill-rule="evenodd" clip-rule="evenodd" d="M31.095 116.412L26.3805 116.841C26.3805 116.841 23.6865 118.066 23.1354 119.475C22.6456 120.946 22.1558 124.806 22.1558 124.806C22.1558 124.806 23.5028 124.867 23.8701 124.193C24.115 123.641 24.7885 122.416 24.7885 122.416L27.1152 122.6C27.1152 122.6 29.748 123.703 29.3194 122.232C28.8908 120.762 29.8704 120.21 30.2378 120.027C30.9725 119.659 32.3807 119.353 33.6053 119.965C34.0339 120.088 31.095 116.412 31.095 116.412Z" fill="#F06666"/>
<path fill-rule="evenodd" clip-rule="evenodd" d="M40.3404 125.418C40.3404 125.418 42.7282 125.418 42.9731 123.029C43.4629 119.046 38.9933 117.821 38.9933 117.821C38.9933 117.821 31.7073 115.063 29.5031 115.125C26.1356 115.247 24.9723 115.676 22.0946 116.105C18.1761 116.718 16.9515 117.024 16.9515 117.024C16.9515 117.024 17.8699 118.25 18.5434 118.433C19.8292 118.801 22.0946 118.311 23.3192 118.127C24.6049 117.943 26.503 118.127 27.9724 118.495C29.4419 118.862 32.0135 120.333 32.0135 120.333C32.0135 120.333 33.5441 121.129 32.5033 121.619C31.4624 122.048 31.3399 122.416 28.7684 122.232C26.1968 122.048 24.9111 121.558 23.809 122.11C22.9518 122.538 22.9518 123.58 22.9518 123.58C22.9518 123.58 23.9927 123.703 26.2581 124.315C28.5235 124.928 29.0133 125.663 32.2583 125.357C35.5646 124.928 40.3404 125.418 40.3404 125.418Z" fill="#FFB8B8"/>
<path fill-rule="evenodd" clip-rule="evenodd" d="M122.569 91.1685C122.263 90.2494 118.528 84.7964 118.16 80.0174C117.671 74.6256 120.609 69.1114 120.609 69.1114C120.609 69.1114 135.61 74.5031 140.814 100.053C141.121 101.646 141.488 102.994 141.733 104.954C143.447 119.353 141.917 129.768 126.732 135.283C112.834 140.307 92.9347 139.265 92.9347 139.265C92.9347 139.265 94.1592 138.775 94.894 135.589C95.5062 133.138 92.9347 130.687 92.9347 130.687C92.9347 130.687 106.527 129.952 117.12 125.786C127.712 121.619 129.059 114.696 127.038 102.197C126.181 96.9891 122.569 91.2297 122.569 91.1685Z" fill="#D6001D"/>
<path fill-rule="evenodd" clip-rule="evenodd" d="M107.598 71.8973L107.598 71.8977C107.589 71.9069 107.579 71.9151 107.569 71.9223C107.543 71.9458 107.499 71.987 107.438 72.0454C107.309 72.1679 107.109 72.3639 106.851 72.6253C106.335 73.148 105.592 73.9314 104.746 74.9114C103.053 76.8729 100.953 79.6149 99.4335 82.6257C99.3538 82.7853 99.2743 82.9441 99.1953 83.1022C95.6299 90.2319 92.85 95.7907 95.1014 103.854C95.1334 103.969 95.0664 104.088 94.9518 104.12C94.8372 104.152 94.7183 104.085 94.6863 103.97C92.3898 95.7451 95.2387 90.0492 98.7902 82.9486C98.8759 82.7774 98.9619 82.6054 99.0482 82.4326L99.0486 82.4318C100.59 79.377 102.715 76.6049 104.42 74.6298C105.273 73.6415 106.023 72.851 106.544 72.3226C106.805 72.0584 107.008 71.8594 107.14 71.7338C107.205 71.6712 107.254 71.6261 107.282 71.6001C107.293 71.5903 107.309 71.5758 107.321 71.5667C107.323 71.5652 107.329 71.5606 107.337 71.5555C107.341 71.5526 107.354 71.5454 107.362 71.5413C107.38 71.5341 107.448 71.5213 107.499 71.5261C107.599 71.5777 107.669 71.7337 107.661 71.7953C107.654 71.8161 107.64 71.8451 107.634 71.8539C107.626 71.8661 107.619 71.8751 107.617 71.8771L107.617 71.8772C107.61 71.8859 107.601 71.8942 107.598 71.8973ZM107.295 71.5908C107.295 71.5908 107.295 71.5909 107.295 71.5913L107.295 71.5908ZM110.816 126.596C110.875 126.699 110.841 126.831 110.738 126.891C107.703 128.657 103.416 129.734 99.8297 130.371C96.2412 131.007 93.3193 131.209 92.9958 131.209C92.8768 131.209 92.7803 131.112 92.7803 130.993C92.7803 130.874 92.8768 130.778 92.9958 130.778C93.2846 130.778 96.1793 130.581 99.7544 129.946C103.331 129.311 107.555 128.244 110.521 126.518C110.624 126.458 110.756 126.493 110.816 126.596ZM134.675 131.469C134.75 131.561 134.737 131.697 134.644 131.773C131.913 134.009 127.682 135.596 123.636 136.715C119.819 137.771 116.139 138.419 113.986 138.797C113.853 138.82 113.726 138.843 113.606 138.864L113.605 138.864C106.654 140.064 101.527 139.915 97.2913 139.792C96.1022 139.758 94.9834 139.725 93.9142 139.725C93.7952 139.725 93.6987 139.629 93.6987 139.51C93.6987 139.391 93.7952 139.294 93.9142 139.294C94.9976 139.294 96.1258 139.327 97.3212 139.361C101.553 139.484 106.628 139.631 113.532 138.44C113.652 138.418 113.778 138.396 113.91 138.373C116.063 137.994 119.725 137.35 123.521 136.3C127.558 135.183 131.714 133.615 134.371 131.439C134.464 131.364 134.599 131.377 134.675 131.469Z" fill="#4C277E"/>
<path fill-rule="evenodd" clip-rule="evenodd" d="M92.5058 131.545C92.5058 131.545 88.7709 127.991 87.0565 126.337C86.5055 125.786 85.8932 125.295 85.2197 124.928C83.4441 123.886 79.9542 121.864 79.9542 121.864L79.7093 124.07C79.7093 124.07 81.5461 125.479 82.6482 126.337C83.1992 126.766 83.6278 127.379 83.8115 128.053C84.1176 129.094 84.5462 130.442 84.5462 130.442L92.5058 131.545Z" fill="#FFB8B8"/>
<path opacity="0.2" fill-rule="evenodd" clip-rule="evenodd" d="M92.5053 131.545C92.5053 131.545 88.7704 127.991 87.0561 126.337C86.505 125.786 85.8928 125.295 85.2193 124.928C83.4437 123.886 79.9537 121.864 79.9537 121.864L79.7088 124.07C79.7088 124.07 81.5456 125.479 82.6477 126.337C83.1987 126.766 83.6274 127.379 83.811 128.053C84.1172 129.094 84.5458 130.442 84.5458 130.442L92.5053 131.545Z" fill="#F06666"/>
<path fill-rule="evenodd" clip-rule="evenodd" d="M117.855 68.07C117.855 68.07 115.161 71.5624 112.528 72.8491C109.711 74.2583 108.119 72.4202 108.119 72.4202L103.282 63.5361C103.282 63.5361 99.6701 65.6805 98.0782 64.3939C96.0577 62.8621 94.527 57.8993 94.1596 56.7964C94.0984 56.6739 94.0372 56.5514 93.8535 56.5514C93.4861 56.4901 92.6289 56.245 92.0779 56.1225C91.7718 56.0612 91.5269 55.7548 91.5881 55.3872C91.833 54.0393 92.4453 50.7307 92.6902 49.6891C92.6902 49.6279 91.037 44.6038 92.0779 41.2339C93.0575 37.9254 95.7515 36.2098 95.7515 36.2098L109.405 35.5971L116.018 45.0327L115.406 57.4091L118.957 66.9672L117.855 68.07Z" fill="#FFB8B8"/>
<mask id="mask4" mask-type="alpha" maskUnits="userSpaceOnUse" x="91" y="35" width="28" height="39">
<path fill-rule="evenodd" clip-rule="evenodd" d="M117.855 68.07C117.855 68.07 115.161 71.5624 112.528 72.8491C109.711 74.2583 108.119 72.4202 108.119 72.4202L103.282 63.5361C103.282 63.5361 99.6701 65.6805 98.0782 64.3939C96.0577 62.8621 94.527 57.8993 94.1596 56.7964C94.0984 56.6739 94.0372 56.5514 93.8535 56.5514C93.4861 56.4901 92.6289 56.245 92.0779 56.1225C91.7717 56.0612 91.5268 55.7548 91.5881 55.3872C91.833 54.0393 92.4452 50.7307 92.6902 49.6891C92.6902 49.6279 91.037 44.6038 92.0779 41.2339C93.0575 37.9254 95.7515 36.2098 95.7515 36.2098L109.405 35.5971L116.018 45.0327L115.405 57.4091L118.957 66.9672L117.855 68.07Z" fill="#FFB8B8"/>
</mask>
<g mask="url(#mask4)">
<path fill-rule="evenodd" clip-rule="evenodd" d="M96.4255 64.2109C96.4255 64.2109 99.0583 66.968 102.793 64.0883C106.528 61.2699 106.957 59.6769 106.957 59.6769C106.957 59.6769 106.712 65.0074 108.12 68.6835C110.079 73.9527 111.12 76.2197 111.12 76.2197L96.4255 64.2109Z" fill="#FFB8B8"/>
<path fill-rule="evenodd" clip-rule="evenodd" d="M93.7312 59.1247L94.7108 60.5951C94.7108 60.5951 95.8129 60.35 96.6701 59.6148C97.8334 58.6958 98.2008 57.5929 98.2008 57.5929C98.2008 57.5929 95.7517 59.3085 93.7312 59.1247Z" fill="#FAEDFE"/>
<path fill-rule="evenodd" clip-rule="evenodd" d="M98.406 57.6611L98.2016 57.593C98.406 57.6611 98.406 57.6612 98.406 57.6613L98.4059 57.6614L98.4058 57.6619L98.4054 57.663L98.4042 57.6666L98.4 57.6783C98.3965 57.6882 98.3914 57.7021 98.3846 57.7197C98.371 57.7549 98.3507 57.8051 98.3227 57.8676C98.2669 57.9926 98.1805 58.1673 98.0566 58.3712C97.8095 58.778 97.4118 59.3034 96.8079 59.7813C96.3559 60.168 95.8444 60.4229 95.4499 60.5808C95.2513 60.6603 95.0803 60.716 94.9582 60.7521C94.8971 60.7701 94.8482 60.7832 94.814 60.792C94.7969 60.7964 94.7835 60.7996 94.7742 60.8019L94.7631 60.8045L94.76 60.8052L94.759 60.8054L94.7586 60.8055L94.7585 60.8055C94.7584 60.8055 94.7584 60.8055 94.7116 60.5952L94.7584 60.8055C94.6715 60.8249 94.5816 60.7888 94.5323 60.7147L93.5526 59.2442C93.5066 59.1752 93.5044 59.0858 93.5468 59.0145C93.5893 58.9432 93.6689 58.9026 93.7515 58.9101C94.7029 58.9967 95.777 58.6345 96.6329 58.2327C97.0569 58.0337 97.4194 57.8289 97.6758 57.6738C97.8039 57.5963 97.9052 57.5315 97.9741 57.4862C98.0086 57.4636 98.035 57.4459 98.0525 57.434L98.0721 57.4206L98.0768 57.4173L98.0778 57.4166L98.0779 57.4165L98.078 57.4165L98.078 57.4165C98.1541 57.3632 98.2559 57.3647 98.3304 57.4202C98.4049 57.4758 98.4354 57.5729 98.406 57.6611ZM94.8056 60.3477C94.8154 60.3449 94.8256 60.3419 94.8362 60.3388C94.9476 60.3059 95.1056 60.2544 95.2897 60.1807C95.6596 60.0327 96.1261 59.7982 96.5306 59.4513L96.5373 59.4458C97.0799 59.0171 97.4417 58.5468 97.6699 58.1775C97.433 58.3135 97.1422 58.4698 96.816 58.6229C96.0584 58.9784 95.0851 59.3292 94.1428 59.3527L94.8056 60.3477Z" fill="#DE1414"/>
</g>
<path fill-rule="evenodd" clip-rule="evenodd" d="M122.63 34.5554C113.813 22.5465 101.997 26.2227 98.9964 27.0805C89.5061 29.8376 88.2816 38.9056 88.3428 43.6233C88.3428 44.3586 88.7102 45.0938 89.2612 45.5839C89.8123 46.0741 90.547 46.3192 91.3429 46.2579C92.5063 46.1354 94.037 45.9516 95.5676 45.6452C97.282 45.3389 98.9964 44.6036 100.405 44.4198C100.711 44.3586 99.5474 43.4395 98.8739 42.5817C97.8943 41.3563 97.2208 39.7633 97.2208 39.7633C97.2208 39.7633 98.078 42.1528 102.731 44.3585C104.078 45.0325 105.548 47.8509 105.548 47.8509C105.548 47.8509 107.446 44.6649 109.527 46.2579C110.262 46.8093 110.507 48.0347 110.323 49.0151C109.956 51.3433 107.752 51.1595 107.752 51.2208C108.67 55.6322 109.527 58.1442 111.67 61.269C115.283 66.4157 118.283 68.1312 118.283 68.1312C118.283 68.1312 121.834 69.2953 125.447 72.1137C130.651 76.0963 134.753 83.2648 134.753 83.2648C134.753 83.2648 136.345 82.8972 138.366 82.1619C140.386 81.4267 142.162 80.6915 142.162 80.6915C142.162 80.6915 139.223 77.9344 137.998 76.8928C136.774 75.8512 133.467 73.3391 133.467 73.3391C133.467 73.3391 138.182 75.7899 139.713 76.4026C141.243 77.0153 145.713 78.1182 145.713 78.1182C145.713 78.1182 147.488 77.0153 148.223 76.3413C150.917 73.8293 155.387 70.5207 157.224 63.1683C157.285 62.862 154.652 64.8839 150.611 65.3128C142.958 66.3544 134.937 61.4528 134.937 61.4528C134.937 61.4528 145.59 65.2515 152.632 60.9014C157.162 58.083 158.754 55.6322 158.754 55.6322C158.754 55.6322 158.999 54.3455 158.999 53.6715C158.448 35.7808 144.917 40.4986 139.284 42.1528C131.508 44.3586 124.773 37.5576 122.63 34.5554Z" fill="#212122"/>
<mask id="mask5" mask-type="alpha" maskUnits="userSpaceOnUse" x="88" y="25" width="71" height="59">
<path fill-rule="evenodd" clip-rule="evenodd" d="M122.63 34.5554C113.813 22.5465 101.997 26.2227 98.9964 27.0805C89.5061 29.8376 88.2816 38.9056 88.3428 43.6233C88.3428 44.3586 88.7102 45.0938 89.2612 45.5839C89.8123 46.0741 90.547 46.3192 91.3429 46.2579C92.5063 46.1354 94.037 45.9516 95.5676 45.6452C97.282 45.3389 98.9964 44.6036 100.405 44.4198C100.711 44.3586 99.5474 43.4395 98.8739 42.5817C97.8943 41.3563 97.2208 39.7633 97.2208 39.7633C97.2208 39.7633 98.078 42.1528 102.731 44.3585C104.078 45.0325 105.548 47.8509 105.548 47.8509C105.548 47.8509 107.446 44.6649 109.527 46.2579C110.262 46.8093 110.507 48.0347 110.323 49.0151C109.956 51.3433 107.752 51.1595 107.752 51.2208C108.67 55.6322 109.527 58.1442 111.67 61.269C115.283 66.4157 118.283 68.1312 118.283 68.1312C118.283 68.1312 121.834 69.2953 125.447 72.1137C130.651 76.0963 134.753 83.2648 134.753 83.2648C134.753 83.2648 136.345 82.8972 138.366 82.1619C140.386 81.4267 142.162 80.6915 142.162 80.6915C142.162 80.6915 139.223 77.9344 137.998 76.8928C136.774 75.8512 133.467 73.3391 133.467 73.3391C133.467 73.3391 138.182 75.7899 139.713 76.4026C141.243 77.0153 145.713 78.1182 145.713 78.1182C145.713 78.1182 147.488 77.0153 148.223 76.3413C150.917 73.8293 155.387 70.5207 157.224 63.1683C157.285 62.862 154.652 64.8839 150.611 65.3128C142.958 66.3544 134.937 61.4528 134.937 61.4528C134.937 61.4528 145.59 65.2515 152.632 60.9014C157.162 58.083 158.754 55.6322 158.754 55.6322C158.754 55.6322 158.999 54.3455 158.999 53.6715C158.448 35.7808 144.917 40.4986 139.284 42.1528C131.508 44.3586 124.773 37.5576 122.63 34.5554Z" fill="#212122"/>
</mask>
<g mask="url(#mask5)">
<mask id="mask6" mask-type="alpha" maskUnits="userSpaceOnUse" x="88" y="25" width="72" height="58">
<path fill-rule="evenodd" clip-rule="evenodd" d="M122.785 34.175C113.968 22.1661 102.151 25.8423 99.1512 26.7001C89.6609 29.4572 88.4364 38.5251 88.4976 43.2429C88.4976 43.9781 88.865 44.7133 89.4161 45.2035C89.9671 45.6937 90.7018 45.9388 91.4978 45.8775C92.6611 45.755 94.1918 45.5711 95.7225 45.2648C97.4368 44.9584 99.1512 44.2232 100.559 44.0394C100.866 43.9781 99.7022 43.0591 99.0287 42.2013C98.0491 40.9759 97.3756 39.3829 97.3756 39.3829C97.3756 39.3829 98.2328 41.7724 102.886 43.9781C104.233 44.6521 105.703 47.4705 105.703 47.4705C105.703 47.4705 107.601 44.2845 109.682 45.8775C110.417 46.4289 110.662 47.6543 110.478 48.6346C110.111 50.9629 107.907 50.7791 107.907 50.8403C108.825 55.2517 109.682 57.7638 111.825 60.8886C115.438 66.0352 118.438 67.7508 118.438 67.7508C118.438 67.7508 121.989 68.9149 125.601 71.7333C130.806 75.7158 134.908 82.8844 134.908 82.8844C134.908 82.8844 136.5 82.5168 138.52 81.7815C140.541 81.0463 142.316 80.3111 142.316 80.3111C142.316 80.3111 139.378 77.5539 138.153 76.5123C136.928 75.4708 133.622 72.9587 133.622 72.9587C133.622 72.9587 138.337 75.4095 139.867 76.0222C141.398 76.6349 145.868 77.7377 145.868 77.7377C145.868 77.7377 147.643 76.6349 148.378 75.9609C151.072 73.4488 155.542 70.1403 157.378 62.7879C157.44 62.4816 154.807 64.5035 150.766 64.9324C143.112 65.9739 135.092 61.0724 135.092 61.0724C135.092 61.0724 145.745 64.8711 152.786 60.5209C157.317 57.7025 158.909 55.2517 158.909 55.2517C158.909 55.2517 159.154 53.9651 159.154 53.2911C158.603 35.4004 145.072 40.1181 139.439 41.7724C131.663 43.9781 124.928 37.1772 122.785 34.175Z" fill="#7945C1"/>
</mask>
<g mask="url(#mask6)">
<path opacity="0.2" fill-rule="evenodd" clip-rule="evenodd" d="M106.168 22.0961C106.274 22.1502 106.316 22.28 106.262 22.386C105.593 23.695 105.595 25.7917 106.148 27.9086C106.7 30.0187 107.785 32.0886 109.212 33.338C109.779 33.8326 110.776 34.2939 112.078 34.8725C112.168 34.9124 112.259 34.9528 112.351 34.9937C113.584 35.5404 115.038 36.1854 116.561 37.0423C119.839 38.887 123.443 41.718 125.917 46.7L125.917 46.7002C129.372 53.6748 137.325 58.7824 144.73 59.6936C149.124 60.2089 153.305 59.2207 156.246 56.2483C158.348 54.1228 159.837 50.9619 160.303 46.5583C159.911 47.418 159.479 48.2767 158.995 49.0959C157.999 50.7809 156.769 52.3125 155.169 53.3484C155.169 53.3485 155.169 53.3486 155.169 53.3488L155.052 53.1679L155.17 53.348C155.17 53.3481 155.17 53.3482 155.169 53.3484C154.161 54.0102 152.421 54.6758 150.664 55.175C148.905 55.6745 147.092 56.018 145.929 56.018L145.926 56.018C141.017 55.9558 138.093 54.143 134.161 51.0081L134.16 51.0072C131.896 49.1756 130.287 46.7732 128.713 44.3951L128.623 44.2601C127.074 41.9187 125.547 39.6116 123.442 37.8312L123.438 37.8284L123.438 37.8284C121.934 36.5034 120.186 35.5974 118.31 34.992L118.31 34.9919C117.892 34.8562 117.461 34.7271 117.026 34.5967C116.303 34.3802 115.57 34.1604 114.866 33.9017C113.728 33.4836 112.63 32.9518 111.684 32.1314L111.682 32.1294L111.682 32.1293C110.516 31.0886 109.826 29.8609 109.321 28.57C109.004 27.761 108.755 26.91 108.508 26.0662C108.365 25.5791 108.223 25.0945 108.069 24.6216C108.032 24.5084 108.094 24.3869 108.207 24.35C108.321 24.3132 108.442 24.3751 108.479 24.4883C108.642 24.9881 108.787 25.4841 108.93 25.9753C109.173 26.8036 109.411 27.6179 109.722 28.413C110.212 29.6644 110.869 30.8258 111.968 31.8068C111.967 31.8065 111.967 31.8061 111.966 31.8058L111.825 31.9686L111.969 31.8078C111.968 31.8075 111.968 31.8071 111.968 31.8068C112.858 32.5789 113.902 33.0884 115.015 33.4972C115.71 33.7527 116.416 33.9642 117.127 34.1771C117.565 34.308 118.004 34.4395 118.443 34.5819L118.377 34.787L118.443 34.582C118.443 34.582 118.443 34.5819 118.443 34.5819M123.722 37.5035C125.874 39.324 127.43 41.6757 128.968 44.0006C129.003 44.0528 129.038 44.105 129.072 44.1572C130.651 46.5425 132.226 48.8881 134.43 50.6714C138.336 53.7856 141.166 55.5263 145.93 55.587C147.033 55.5868 148.8 55.2563 150.546 54.7604C152.294 54.264 153.982 53.6125 154.933 52.9878L154.935 52.987C156.457 52.0009 157.646 50.5305 158.624 48.8766C159.312 47.7137 159.892 46.4667 160.409 45.2431C160.489 43.8408 160.472 42.3234 160.347 40.6853C160.338 40.5666 160.427 40.4631 160.546 40.454C160.664 40.445 160.768 40.5338 160.777 40.6525C160.869 41.8615 160.903 43.0077 160.883 44.093C160.935 43.9658 160.985 43.8394 161.036 43.7136C161.08 43.6031 161.205 43.5494 161.316 43.5935C161.426 43.6377 161.48 43.7631 161.436 43.8736C161.244 44.3525 161.045 44.8448 160.835 45.3429C160.529 50.477 158.939 54.138 156.552 56.5514C153.492 59.6446 149.163 60.6476 144.679 60.1216L144.678 60.1214C137.144 59.1944 129.056 54.0088 125.531 46.8915C123.106 42.0092 119.577 39.2341 116.35 37.4179C114.846 36.5714 113.409 35.9341 112.174 35.3867C112.083 35.3461 111.992 35.306 111.903 35.2663C110.624 34.698 109.555 34.2097 108.928 33.6627L108.928 33.6624C107.416 32.3385 106.297 30.1809 105.731 28.0176C105.167 25.8609 105.138 23.6381 105.878 22.19C105.932 22.084 106.062 22.0419 106.168 22.0961M102.406 22.8079C102.524 22.8131 102.617 22.9137 102.611 23.0326C102.598 23.3399 102.514 23.6882 102.421 24.0787C102.399 24.1691 102.377 24.2618 102.354 24.3567C102.234 24.8733 102.109 25.4953 102.068 26.2818C101.986 27.853 102.238 30.1039 103.576 33.4813C104.349 35.3845 105.793 36.7325 107.503 37.838C108.712 38.6195 110.036 39.2695 111.339 39.9096C111.888 40.1793 112.433 40.4473 112.965 40.7226L112.967 40.7235C115.063 41.834 116.936 43.1414 118.311 45.2059L118.313 45.2083L118.313 45.2083C119.419 46.9168 120.367 49.1046 121.336 51.3413C121.611 51.9764 121.888 52.6154 122.17 53.2485C123.457 56.1292 124.866 58.8954 126.791 60.7316C129.164 62.985 133.979 66.6746 139.466 68.9061C144.958 71.1392 151.068 71.8921 156.091 68.3702C156.189 68.3019 156.323 68.3255 156.391 68.4229C156.46 68.5204 156.436 68.6547 156.339 68.723C151.137 72.3697 144.849 71.5602 139.304 69.3053C133.755 67.0488 128.896 63.3247 126.494 61.0442L126.494 61.0438C124.5 59.1426 123.062 56.3028 121.777 53.4242C121.488 52.7781 121.208 52.1304 120.93 51.49C119.964 49.2601 119.036 47.1189 117.952 45.4437C116.633 43.4654 114.833 42.1998 112.766 41.1049C112.252 40.8387 111.717 40.5759 111.174 40.3091C109.861 39.6642 108.5 38.9959 107.269 38.1999C105.52 37.0692 103.995 35.6603 103.176 33.6426L103.176 33.6409C101.82 30.2179 101.552 27.9045 101.638 26.2592C101.681 25.4373 101.812 24.788 101.935 24.2592C101.959 24.1528 101.983 24.0526 102.006 23.9579C102.099 23.5716 102.17 23.2757 102.181 23.0138C102.186 22.895 102.287 22.8028 102.406 22.8079ZM110.516 23.3309C110.526 23.2971 110.544 23.2652 110.571 23.2385C110.576 23.2334 110.587 23.2226 110.6 23.2122L110.6 23.2121C110.605 23.2082 110.624 23.1942 110.65 23.1831C110.662 23.1777 110.692 23.166 110.733 23.1656C110.78 23.1652 110.847 23.181 110.898 23.2394C110.942 23.2904 110.949 23.3457 110.951 23.3702C110.952 23.3969 110.948 23.4179 110.946 23.428C110.942 23.4488 110.935 23.4646 110.933 23.4701C110.927 23.4835 110.921 23.4949 110.918 23.5002C110.908 23.5166 110.893 23.5416 110.879 23.5636C110.875 23.5699 110.871 23.576 110.868 23.5816C110.849 23.6119 110.831 23.6408 110.819 23.6642C110.818 23.6654 110.817 23.6666 110.817 23.6678C110.82 23.7352 110.831 23.8158 110.845 23.9118L110.846 23.9201C110.859 24.0148 110.875 24.1259 110.877 24.2278C110.995 24.8591 111.283 25.4389 111.589 26.0503C112.489 27.7923 113.811 29.2368 115.439 30.3829C116.661 31.2389 117.987 32.0818 119.366 32.5616C120.109 32.8196 120.853 33.0325 121.595 33.2402C121.677 33.263 121.759 33.2859 121.841 33.3087C122.499 33.4925 123.156 33.6758 123.8 33.8851C125.252 34.3564 126.658 34.9643 127.943 36.0304L127.945 36.032C130.001 37.7791 131.505 40.0119 132.992 42.2191C133.142 42.4412 133.291 42.6629 133.441 42.8839C135.087 45.3121 136.781 47.6536 139.253 49.3128L139.253 49.3129C143.101 51.8999 147.916 52.0253 152.14 49.9722C155.926 48.1079 158.154 43.8759 156.086 39.9733C156.03 39.8681 156.07 39.7377 156.175 39.682C156.281 39.6263 156.411 39.6663 156.467 39.7715C158.684 43.9564 156.259 48.4245 152.33 50.359L152.329 50.3595C147.982 52.4724 143.001 52.3526 139.012 49.6705C136.464 47.9599 134.729 45.5531 133.084 43.1257C132.935 42.9055 132.786 42.6851 132.638 42.4651C131.145 40.2501 129.674 38.0675 127.667 36.3612C126.442 35.3446 125.093 34.7579 123.667 34.295C123.032 34.0886 122.384 33.9078 121.725 33.7237C121.643 33.7009 121.561 33.6781 121.479 33.6552C120.737 33.4474 119.981 33.2314 119.224 32.9686L119.224 32.9686C117.786 32.4681 116.419 31.5955 115.192 30.7359L115.191 30.7356C113.513 29.5538 112.141 28.0578 111.205 26.2469L111.204 26.2443L111.204 26.2443L111.197 26.2314C110.896 25.6274 110.578 24.9914 110.45 24.2871C110.448 24.2744 110.446 24.2615 110.446 24.2486C110.446 24.1751 110.434 24.0843 110.418 23.9727L110.417 23.9645C110.402 23.8633 110.385 23.7433 110.385 23.6359C110.385 23.5854 110.401 23.543 110.408 23.5263C110.417 23.5032 110.428 23.4809 110.438 23.4621C110.458 23.4242 110.483 23.3842 110.502 23.3533C110.507 23.3449 110.512 23.3375 110.516 23.3309ZM110.809 23.6842C110.809 23.684 110.809 23.6836 110.809 23.6832C110.808 23.6864 110.808 23.6869 110.809 23.6842ZM104.304 24.1063C104.416 24.1454 104.476 24.2682 104.437 24.3806C103.968 25.73 104.019 27.7294 104.81 29.872C105.6 32.0093 107.121 34.2733 109.568 36.1477L109.57 36.1487C110.897 37.1816 112.391 37.9026 113.9 38.6308C114.245 38.7974 114.591 38.9644 114.936 39.1356C116.778 40.0493 118.575 41.0773 119.953 42.8007C120.761 43.7966 121.411 44.8979 122.011 46.0204C122.267 46.4997 122.511 46.9778 122.754 47.4536C123.085 48.1034 123.415 48.7489 123.769 49.3871M109.306 36.4892C106.794 34.565 105.223 32.234 104.406 30.0214C103.59 27.8138 103.519 25.7082 104.029 24.2391C104.069 24.1267 104.191 24.0673 104.304 24.1063M99.1911 24.1808C99.2962 24.2367 99.3361 24.3671 99.2803 24.4722C96.8855 28.9798 98.3855 32.941 98.9111 34.3292C98.9391 34.4031 98.9643 34.4697 98.986 34.5287L98.9861 34.529C100.319 38.1665 102.375 40.9504 105.464 43.2531C107.611 44.8493 109.662 46.5864 111.032 48.9544C112.172 50.8986 112.932 52.9747 113.682 55.0237C113.826 55.4178 113.97 55.8109 114.116 56.2019C115.026 58.634 116.026 60.9946 117.747 63.079L117.747 63.0792C120.147 65.9938 123.229 68.0982 126.394 70.2592C127.356 70.9161 128.326 71.5783 129.286 72.27C133.394 75.2285 137.292 78.7055 139.518 84.5842C139.56 84.6955 139.504 84.8199 139.393 84.862C139.281 84.9042 139.157 84.8481 139.115 84.7368C136.933 78.9743 133.115 75.5585 129.034 72.6197C128.094 71.9428 127.138 71.29 126.184 70.6387C123.008 68.471 119.857 66.3199 117.414 63.3533C115.645 61.2101 114.625 58.7917 113.713 56.3528C113.564 55.9561 113.419 55.5592 113.274 55.1628C112.523 53.1138 111.778 51.0797 110.66 49.1718L110.659 49.1708C109.335 46.8825 107.345 45.1886 105.207 43.599L105.206 43.5988C102.05 41.2451 99.9427 38.3922 98.5816 34.6775C98.5816 34.6775 98.5815 34.6774 98.5815 34.6773L98.7834 34.6033L98.5816 34.6776C98.5816 34.6776 98.5816 34.6776 98.5816 34.6775C98.5599 34.6187 98.5346 34.5519 98.5063 34.4772C97.9757 33.078 96.4116 28.9532 98.8997 24.27C98.9555 24.1649 99.086 24.125 99.1911 24.1808ZM99.9352 24.6476C99.9551 24.6487 99.9751 24.647 99.9947 24.6426C99.9765 24.6469 99.9566 24.649 99.9352 24.6476ZM99.7377 24.4835C99.7206 24.4129 99.7396 24.3353 99.7947 24.2801C99.8218 24.253 99.911 24.1848 100.029 24.2319C100.11 24.2647 100.141 24.3333 100.146 24.3446L100.146 24.3453C100.161 24.3781 100.165 24.409 100.165 24.4153L100.165 24.416C100.168 24.4371 100.169 24.4606 100.169 24.4791C100.169 24.52 100.168 24.5786 100.165 24.6498C100.161 24.7728 100.154 24.9447 100.144 25.1532C100.143 25.1883 100.141 25.2244 100.139 25.2615C100.116 25.7781 100.086 26.492 100.071 27.2704C100.04 28.8392 100.073 30.6298 100.339 31.6056L100.339 31.6076L100.339 31.6076C101.604 36.4282 104.667 38.5958 107.171 40.3072L107.172 40.3078C107.394 40.4613 107.612 40.6108 107.826 40.7575C110.081 42.3055 111.895 43.5508 113.652 45.9327L113.652 45.9334C114.927 47.6752 115.976 50.1671 116.94 52.6692C117.158 53.2346 117.371 53.8004 117.581 54.3589C118.308 56.2858 119.001 58.1262 119.732 59.5649C120.63 61.3322 122.542 63.423 125.103 65.4541C127.659 67.4817 130.844 69.4366 134.267 70.9379C141.129 73.9474 148.876 75.1054 154.445 71.4906C154.544 71.4258 154.678 71.4542 154.743 71.554C154.807 71.6538 154.779 71.7873 154.679 71.8521C148.921 75.5897 140.993 74.3582 134.094 71.3326C130.637 69.8164 127.42 67.8423 124.835 65.7917C122.254 63.7445 120.287 61.6077 119.348 59.7601L119.348 59.7601C118.605 58.2982 117.9 56.4263 117.172 54.4949C116.963 53.9401 116.752 53.3804 116.538 52.8241C115.572 50.3175 114.541 47.8774 113.305 46.1881C111.593 43.8671 109.836 42.6606 107.576 41.1091C107.365 40.9637 107.148 40.8153 106.928 40.6627C104.411 38.9431 101.23 36.6994 99.9227 31.7179C99.6378 30.6715 99.6094 28.8173 99.6399 27.2619C99.6552 26.4779 99.6859 25.7596 99.7089 25.2423C99.7106 25.2049 99.7122 25.1686 99.7137 25.1334C99.7231 24.9246 99.7306 24.7557 99.7346 24.6353C99.737 24.5644 99.7381 24.5141 99.7377 24.4835ZM96.6769 24.9571C96.655 25.0317 96.6292 25.1171 96.6001 25.2135L96.5885 25.2519C96.4006 25.8736 96.0936 26.8894 95.8255 28.1479C95.2791 30.7122 94.8877 34.3109 96.0078 37.6735L96.0081 37.6744C97.4285 41.8766 99.2953 44.6275 103.157 46.5597C103.263 46.6129 103.393 46.5698 103.446 46.4634C103.499 46.357 103.456 46.2275 103.35 46.1743C99.6195 44.3078 97.8127 41.6671 96.4166 37.5369C95.3326 34.2824 95.7066 30.7741 96.247 28.2377C96.5113 26.997 96.814 25.9953 97.0015 25.375L97.0126 25.3381C97.0591 25.1843 97.0986 25.0532 97.1276 24.9497C97.1552 24.8514 97.1783 24.7618 97.1856 24.699C97.1875 24.6822 97.1894 24.6593 97.1878 24.6345C97.1868 24.6178 97.1829 24.561 97.1433 24.5065C97.1198 24.474 97.0833 24.4421 97.0326 24.4253C96.9836 24.4091 96.9392 24.413 96.9082 24.4206C96.8542 24.4339 96.8178 24.464 96.805 24.4749C96.7734 24.5018 96.7456 24.5369 96.7245 24.5652C96.7008 24.5971 96.6738 24.6366 96.644 24.6824C96.5861 24.7712 96.6022 24.887 96.6769 24.9571ZM96.2505 25.2691C96.3298 25.3579 96.3221 25.4941 96.2334 25.5734C92.2762 29.1101 91.0866 33.2742 91.1545 36.9428C91.2226 40.6198 92.5546 43.7938 93.632 45.3221C93.9139 45.7057 94.3234 45.8182 94.8415 45.9097C94.8967 45.9194 94.9534 45.9289 95.0111 45.9386C95.4742 46.0162 96.0092 46.1059 96.4622 46.4383C96.4634 46.4392 96.4646 46.4401 96.4657 46.441C96.467 46.4419 96.4682 46.4429 96.4694 46.4438C96.7626 46.6786 97.0567 46.8555 97.3641 47.04C97.3755 47.0469 97.3863 47.0548 97.3962 47.0636C97.3995 47.0648 97.4139 47.0712 97.4477 47.0791C97.4821 47.0872 97.5137 47.0925 97.5506 47.0987C97.5741 47.1026 97.5997 47.1069 97.6296 47.1125C97.6628 47.1187 97.7005 47.1267 97.7366 47.1376C97.7703 47.1478 97.8176 47.165 97.8611 47.1963C97.9079 47.2299 97.9648 47.2914 97.9761 47.3862C97.9865 47.4739 97.9518 47.545 97.9223 47.5893C97.8563 47.6883 97.7225 47.7151 97.6235 47.6491C97.5806 47.6206 97.5513 47.5794 97.5372 47.5337C97.526 47.5317 97.5131 47.5295 97.4991 47.5272C97.4532 47.5193 97.3957 47.5096 97.3494 47.4987C97.2941 47.4857 97.2003 47.4608 97.1254 47.3994C96.8268 47.2201 96.5157 47.0325 96.2038 46.7832C95.8394 46.5174 95.4117 46.4444 94.939 46.3638C94.8821 46.3541 94.8247 46.3443 94.7666 46.3341C94.2445 46.2419 93.6747 46.1095 93.2832 45.5753L93.2809 45.5721L93.281 45.5721C92.1544 43.9751 90.7933 40.7166 90.7236 36.9507C90.6537 33.175 91.8827 28.8838 95.9462 25.2521C96.0349 25.1727 96.1712 25.1804 96.2505 25.2691ZM96.0231 26.6396C96.09 26.738 96.0645 26.872 95.966 26.9389C94.7825 27.7431 94.0322 29.0342 93.6322 30.5873C93.2322 32.1406 93.1872 33.9409 93.4031 35.7339C93.6189 37.5259 94.0942 39.3004 94.7261 40.7986C95.3601 42.3018 96.143 43.5059 96.9614 44.1786L96.9634 44.1803C97.3753 44.5274 97.955 45.0652 98.5826 45.6474C98.8483 45.8939 99.1226 46.1484 99.3964 46.3997C100.326 47.2532 101.246 48.0668 101.84 48.4533C101.94 48.5182 101.968 48.6517 101.903 48.7514C101.838 48.8512 101.705 48.8795 101.605 48.8146C100.975 48.4046 100.027 47.5639 99.105 46.7172C98.825 46.4602 98.547 46.2023 98.2793 45.954C97.6567 45.3764 97.0903 44.8509 96.6867 44.5107C95.7911 43.7741 94.9748 42.4972 94.329 40.9661C93.6809 39.4296 93.1957 37.616 92.9752 35.7854C92.7549 33.9558 92.7979 32.0991 93.2149 30.4798C93.632 28.8602 94.4277 27.4631 95.7238 26.5824C95.8222 26.5155 95.9563 26.5411 96.0231 26.6396ZM135.694 37.7203C135.702 37.7322 135.708 37.7443 135.713 37.7541C135.731 37.7901 135.738 37.8286 135.735 37.8659C135.737 37.8725 135.739 37.8795 135.741 37.8867C135.771 37.9834 135.816 38.1186 135.847 38.2113C135.85 38.2197 135.852 38.2284 135.854 38.2371C135.909 38.5115 136.018 38.7325 136.142 38.9795C136.143 38.9833 136.145 38.9871 136.147 38.991C136.508 39.8331 136.99 40.6779 137.533 41.4642C139.16 43.7546 141.512 45.5061 144.17 46.5336L144.171 46.5339C146.239 47.344 148.741 47.4466 150.776 46.7007C152.799 45.9592 154.355 44.3842 154.592 41.8159C154.652 40.9171 154.591 40.0857 154.355 39.2576C154.322 39.1431 154.388 39.0239 154.503 38.9912C154.617 38.9585 154.736 39.0248 154.769 39.1392C155.022 40.0258 155.084 40.9091 155.022 41.8473L155.021 41.8527L155.021 41.8527C154.768 44.6133 153.079 46.3155 150.924 47.1054C148.78 47.8912 146.17 47.7794 144.014 46.9354C141.284 45.8799 138.861 44.0782 137.181 41.7127L137.18 41.7105C136.623 40.9059 136.127 40.0376 135.753 39.1665L135.752 39.1643C135.633 38.9265 135.502 38.6635 135.434 38.3351C135.404 38.244 135.36 38.1113 135.33 38.0134C135.315 37.9664 135.3 37.9143 135.293 37.8802L135.293 37.8797C135.292 37.8731 135.287 37.85 135.288 37.8233C135.288 37.815 135.289 37.801 135.293 37.7842C135.296 37.7696 135.303 37.7376 135.327 37.7038C135.354 37.6648 135.403 37.6225 135.475 37.6125C135.539 37.6037 135.587 37.6251 135.609 37.6374C135.649 37.659 135.671 37.6881 135.676 37.6941L135.677 37.6946C135.685 37.7051 135.691 37.7146 135.694 37.7203Z" fill="#767676"/>
</g>
</g>
<path fill-rule="evenodd" clip-rule="evenodd" d="M96.0579 50.6697C96.364 50.6084 96.5477 50.3021 96.4865 49.9957C96.4253 49.6894 96.1191 49.5056 95.813 49.5668C95.5681 49.6281 95.2619 49.6894 94.9558 49.7507C94.6497 49.8119 94.466 50.1183 94.5272 50.4246C94.5884 50.731 94.8946 50.9148 95.2007 50.8535C95.5068 50.7922 95.813 50.6697 96.0579 50.6697Z" fill="#4C277E"/>
<path d="M158.815 60.105C156.917 61.2079 154.958 62.1882 152.876 62.9235C150.855 63.6587 148.712 64.0263 146.569 64.0263C144.426 64.0263 142.406 63.5361 140.447 62.7396C138.487 61.9431 136.651 60.8403 134.875 59.6761L133.589 61.8206C135.549 62.8622 137.63 63.8425 139.834 64.5165C142.039 65.1904 144.365 65.4968 146.631 65.2517C148.896 65.0679 151.1 64.3939 153.121 63.4749C155.141 62.5558 157.039 61.3304 158.815 60.105Z" fill="#212122"/>
<path d="M115.037 68.6828C112.711 66.5384 111.303 63.5974 110.69 60.6565C110.017 57.6543 110.017 54.5295 110.262 51.466H107.751C107.935 54.7133 108.364 57.9606 109.466 61.0241C110.568 64.0263 112.466 66.8447 115.037 68.6828Z" fill="#212122"/>
<path d="M97.6492 48.4026C96.9757 48.1576 96.3021 47.8512 95.5062 47.8512C94.7102 47.8512 93.9755 48.0963 93.302 48.3413L93.5469 48.8928C94.1592 48.5252 94.7715 48.2188 95.5062 48.1575C96.2409 48.0963 96.9757 48.2188 97.6492 48.4026Z" fill="#4C277E"/>
<path d="M41.3803 103.238L54.5442 136.998C54.9115 137.917 55.8299 138.468 56.7483 138.345L83.5659 135.466C83.872 135.098 84.0557 134.976 84.2394 134.731C84.4843 134.424 84.5455 134.057 84.4231 133.689L71.8103 99.9293C71.4429 99.0103 70.5245 98.4589 69.6061 98.5814L42.8497 101.767C42.4824 101.829 42.2375 102.074 42.0538 102.319C41.6864 102.564 41.2578 102.87 41.3803 103.238Z" fill="#AAD5FB"/>
<path d="M41.2588 103.912L53.8716 137.671C54.2389 138.59 55.1574 139.142 56.0758 139.019L82.8321 135.833C83.5669 135.772 83.9954 135.037 83.7505 134.363L71.1377 100.603C70.7703 99.6842 69.8519 99.1328 68.9335 99.2553L42.1772 102.441C41.4424 102.503 41.0139 103.238 41.2588 103.912Z" fill="#D4EAFF"/>
<path d="M46.0953 108.629C45.6055 108.813 44.9932 108.568 44.8095 108.078L43.7686 105.566C43.5849 105.076 43.8299 104.463 44.3197 104.279C44.8095 104.096 45.4218 104.341 45.6055 104.831L46.6463 107.343C46.8912 107.833 46.6464 108.446 46.0953 108.629Z" fill="#AAD5FB"/>
<path d="M45.2867 106.165C45.5869 105.945 45.6198 105.479 45.3602 105.124C45.1006 104.769 44.6467 104.659 44.3465 104.879C44.0464 105.099 44.0135 105.565 44.2731 105.92C44.5328 106.275 44.9866 106.385 45.2867 106.165Z" fill="#2998FF"/>
<path d="M36.3611 105.015L36.2998 104.953C35.9937 104.77 35.6263 104.831 35.4427 105.137L25.034 121.803C25.5851 121.741 26.0749 121.803 26.5647 121.925L36.606 105.873C36.7284 105.566 36.606 105.199 36.3611 105.015Z" fill="#D4EAFF"/>
<path d="M23.8091 123.58L22.1559 126.276C21.9723 126.582 21.36 128.359 21.4212 128.482C21.5437 128.482 23.0743 127.317 23.258 127.011L25.1561 123.886C24.7887 123.764 24.4214 123.641 23.8091 123.58Z" fill="#D4EAFF"/>
<path fill-rule="evenodd" clip-rule="evenodd" d="M83.812 138.53C83.016 138.469 82.2201 138.285 81.4854 138.04C80.1384 137.55 77.9342 136.814 77.1382 136.569C76.9545 136.508 76.7709 136.447 76.5872 136.324C75.3626 135.773 70.6481 133.751 70.6481 133.751C70.6481 133.751 70.9543 133.506 71.2604 133.2C71.7502 132.832 72.3625 132.709 72.9135 132.893C74.0156 133.261 75.7912 133.935 76.7708 134.241C77.1382 134.364 77.5668 134.486 77.9954 134.486C78.7301 134.548 79.9547 134.67 79.9547 134.67C79.9547 134.67 77.5056 133.445 76.281 132.893C75.8524 132.648 75.4239 132.403 75.0565 132.097C74.2605 131.423 72.7911 130.259 71.9339 129.523C71.5053 129.156 71.1992 128.604 71.2604 127.992C71.2604 127.379 71.3216 126.582 71.3829 125.847C71.3829 125.541 71.5665 125.235 71.8727 125.051C72.1788 124.867 72.5462 124.867 72.7911 125.051C74.0156 125.725 75.7912 126.705 77.0158 127.379C77.9342 127.869 78.975 128.298 80.0159 128.543C81.7303 128.972 84.363 129.585 86.0774 130.014C86.506 130.136 86.9346 130.014 87.2407 129.768C87.5468 129.523 87.7918 129.156 87.7918 128.727C87.853 127.869 87.9142 127.011 87.9142 127.011L93.9145 131.607C93.9145 131.607 95.3839 133.322 94.8941 135.834C94.4655 138.04 93.6084 139.51 93.6084 139.51C93.6084 139.51 86.6897 138.836 83.812 138.53Z" fill="#FFB8B8"/>
</g>
<path d="M154.346 41.0497C152.938 39.8243 151.04 39.2116 149.203 39.0278C147.366 38.7827 145.468 38.9053 143.631 39.2116C141.794 39.4567 139.958 39.8243 138.121 40.0694C136.284 40.2532 134.508 40.3145 132.794 39.9469C131.08 39.5792 129.488 38.7827 128.018 37.7411C126.549 36.6995 125.202 35.4741 123.794 34.2487C122.385 33.0234 120.977 31.7367 119.263 30.6951C118.834 30.45 118.405 30.205 117.977 29.9599C117.548 29.7148 116.997 29.531 116.507 29.3472C115.956 29.1634 115.405 29.1021 114.732 29.1021C114.12 29.1021 113.385 29.3472 112.773 29.7761L114.242 31.798C114.426 31.6754 114.609 31.5529 114.854 31.5529C115.16 31.4916 115.467 31.5529 115.834 31.6142C116.201 31.6754 116.569 31.798 116.936 31.9818C117.303 32.1656 117.732 32.3494 118.099 32.5332C119.63 33.391 121.038 34.4938 122.508 35.5967C123.977 36.7608 125.385 37.9249 127.039 38.9665C127.835 39.4567 128.692 39.9468 129.61 40.3145C130.1 40.4983 130.529 40.6821 131.018 40.8046C131.508 40.9272 131.937 41.0497 132.427 41.111C134.386 41.4173 136.284 41.2335 138.121 40.9272C139.958 40.6208 141.794 40.1306 143.57 39.763C145.346 39.3954 147.182 39.1503 149.019 39.2729C150.978 39.4567 152.815 39.9469 154.346 41.0497Z" fill="#212122"/>
<path fill-rule="evenodd" clip-rule="evenodd" d="M117.855 68.0695C117.855 68.0695 115.161 71.5619 112.528 72.8485C109.712 74.2577 108.12 72.4197 108.12 72.4197L103.283 63.5356C103.283 63.5356 99.6705 65.68 98.0786 64.3933C96.0581 62.8616 94.5274 57.8988 94.16 56.7959C94.0988 56.6734 94.0376 56.5508 93.8539 56.5508C93.4865 56.4895 92.6293 56.2444 92.0783 56.1219C91.7722 56.0606 91.5273 55.7543 91.5885 55.3867C91.8334 54.0387 92.4457 50.7302 92.6906 49.6886C92.6906 49.6273 91.0374 44.6032 92.0783 41.2334C93.0579 37.9248 95.7519 36.2093 95.7519 36.2093L109.406 35.5966L116.018 45.0321L115.406 57.4086L118.957 66.9667L117.855 68.0695Z" fill="#FFB8B8"/>
<mask id="mask7" mask-type="alpha" maskUnits="userSpaceOnUse" x="91" y="35" width="28" height="39">
<path fill-rule="evenodd" clip-rule="evenodd" d="M117.855 68.0695C117.855 68.0695 115.161 71.5619 112.528 72.8485C109.712 74.2577 108.12 72.4197 108.12 72.4197L103.283 63.5356C103.283 63.5356 99.6705 65.68 98.0786 64.3933C96.0581 62.8616 94.5274 57.8988 94.16 56.7959C94.0988 56.6734 94.0376 56.5508 93.8539 56.5508C93.4865 56.4895 92.6293 56.2444 92.0783 56.1219C91.7722 56.0606 91.5273 55.7543 91.5885 55.3867C91.8334 54.0387 92.4457 50.7302 92.6906 49.6886C92.6906 49.6273 91.0374 44.6032 92.0783 41.2334C93.0579 37.9248 95.7519 36.2093 95.7519 36.2093L109.406 35.5966L116.018 45.0321L115.406 57.4086L118.957 66.9667L117.855 68.0695Z" fill="#FFB8B8"/>
</mask>
<g mask="url(#mask7)">
<path fill-rule="evenodd" clip-rule="evenodd" d="M96.4258 64.2104C96.4258 64.2104 99.0586 66.9675 102.794 64.0878C106.528 61.2694 106.957 59.6764 106.957 59.6764C106.957 59.6764 106.712 65.0069 108.12 68.6831C110.08 73.9523 111.12 76.2192 111.12 76.2192L96.4258 64.2104Z" fill="#FFB8B8"/>
<path fill-rule="evenodd" clip-rule="evenodd" d="M93.7315 59.1246L94.7111 60.5951C94.7111 60.5951 95.8132 60.35 96.6704 59.6148C97.8337 58.6957 98.2011 57.5929 98.2011 57.5929C98.2011 57.5929 95.752 59.3084 93.7315 59.1246Z" fill="#FAEDFE"/>
<path fill-rule="evenodd" clip-rule="evenodd" d="M98.4064 57.6606L98.2019 57.5925C98.4064 57.6606 98.4063 57.6607 98.4063 57.6607L98.4063 57.6609L98.4061 57.6614L98.4057 57.6625L98.4045 57.6661L98.4004 57.6778C98.3968 57.6877 98.3917 57.7016 98.3849 57.7192C98.3713 57.7544 98.351 57.8046 98.3231 57.8671C98.2672 57.992 98.1809 58.1667 98.057 58.3707C97.8099 58.7775 97.4122 59.3028 96.8082 59.7808C96.3563 60.1675 95.8447 60.4224 95.4502 60.5803C95.2516 60.6598 95.0806 60.7155 94.9586 60.7516C94.8975 60.7696 94.8485 60.7827 94.8144 60.7915C94.7973 60.7959 94.7839 60.7991 94.7745 60.8014L94.7635 60.804L94.7603 60.8047L94.7593 60.8049L94.759 60.805L94.7588 60.805C94.7588 60.805 94.7587 60.805 94.712 60.5947L94.7587 60.805C94.6718 60.8244 94.582 60.7882 94.5326 60.7142L93.553 59.2437C93.507 59.1747 93.5047 59.0853 93.5472 59.014C93.5896 58.9427 93.6692 58.9021 93.7518 58.9096C94.7032 58.9962 95.7773 58.634 96.6333 58.2322C97.0573 58.0332 97.4198 57.8284 97.6762 57.6733C97.8042 57.5958 97.9056 57.531 97.9745 57.4857C98.009 57.4631 98.0353 57.4454 98.0528 57.4335L98.0724 57.4201L98.0771 57.4168L98.0782 57.4161L98.0783 57.416L98.0783 57.416L98.0783 57.416C98.1545 57.3627 98.2562 57.3642 98.3307 57.4197C98.4052 57.4753 98.4357 57.5724 98.4064 57.6606ZM94.806 60.3472C94.8157 60.3444 94.8259 60.3414 94.8365 60.3382C94.9479 60.3054 95.106 60.2539 95.2901 60.1802C95.66 60.0321 96.1265 59.7977 96.5309 59.4508L96.5377 59.4453C97.0803 59.0166 97.4421 58.5463 97.6702 58.177C97.4333 58.313 97.1426 58.4692 96.8164 58.6224C96.0588 58.9779 95.0855 59.3287 94.1431 59.3522L94.806 60.3472Z" fill="#DE1414"/>
</g>
<path fill-rule="evenodd" clip-rule="evenodd" d="M122.631 34.5548C113.814 22.546 101.997 26.2222 98.9968 27.0799C89.5065 29.8371 88.282 38.905 88.3432 43.6228C88.3432 44.358 88.7106 45.0932 89.2616 45.5834C89.8127 46.0735 90.5474 46.3186 91.3433 46.2574C92.5067 46.1348 94.0374 45.951 95.568 45.6447C97.2824 45.3383 98.9968 44.6031 100.405 44.4193C100.711 44.358 99.5478 43.439 98.8743 42.5812C97.8947 41.3558 97.2212 39.7628 97.2212 39.7628C97.2212 39.7628 98.0784 42.1523 102.732 44.358C104.079 45.032 105.548 47.8504 105.548 47.8504C105.548 47.8504 107.446 44.6644 109.528 46.2574C110.263 46.8088 110.508 48.0342 110.324 49.0145C109.956 51.3428 107.752 51.1589 107.752 51.2202C108.671 55.6316 109.528 58.1437 111.671 61.2684C115.283 66.4151 118.283 68.1307 118.283 68.1307C118.283 68.1307 121.835 69.2948 125.447 72.1132C130.651 76.0957 134.754 83.2642 134.754 83.2642C134.754 83.2642 136.345 82.8966 138.366 82.1614C140.386 81.4262 142.162 80.6909 142.162 80.6909C142.162 80.6909 139.223 77.9338 137.999 76.8922C136.774 75.8506 133.468 73.3386 133.468 73.3386C133.468 73.3386 138.182 75.7894 139.713 76.4021C141.244 77.0148 145.713 78.1176 145.713 78.1176C145.713 78.1176 147.489 77.0147 148.224 76.3408C150.918 73.8287 155.387 70.5202 157.224 63.1678C157.285 62.8614 154.652 64.8833 150.611 65.3122C142.958 66.3538 134.937 61.4522 134.937 61.4522C134.937 61.4522 145.591 65.251 152.632 60.9008C157.163 58.0824 158.755 55.6316 158.755 55.6316C158.755 55.6316 159 54.345 159 53.671C158.449 35.7802 144.917 40.498 139.284 42.1523C131.508 44.358 124.773 37.5571 122.631 34.5548Z" fill="#212122"/>
<mask id="mask8" mask-type="alpha" maskUnits="userSpaceOnUse" x="88" y="25" width="71" height="59">
<path fill-rule="evenodd" clip-rule="evenodd" d="M122.631 34.5548C113.814 22.546 101.997 26.2222 98.9968 27.0799C89.5065 29.8371 88.282 38.905 88.3432 43.6228C88.3432 44.358 88.7106 45.0932 89.2616 45.5834C89.8127 46.0735 90.5474 46.3186 91.3433 46.2574C92.5067 46.1348 94.0374 45.951 95.568 45.6447C97.2824 45.3383 98.9968 44.6031 100.405 44.4193C100.711 44.358 99.5478 43.439 98.8743 42.5812C97.8947 41.3558 97.2212 39.7628 97.2212 39.7628C97.2212 39.7628 98.0784 42.1523 102.732 44.358C104.079 45.032 105.548 47.8504 105.548 47.8504C105.548 47.8504 107.446 44.6644 109.528 46.2574C110.263 46.8088 110.508 48.0342 110.324 49.0145C109.956 51.3428 107.752 51.1589 107.752 51.2202C108.671 55.6316 109.528 58.1437 111.671 61.2684C115.283 66.4151 118.283 68.1307 118.283 68.1307C118.283 68.1307 121.835 69.2948 125.447 72.1132C130.651 76.0957 134.754 83.2642 134.754 83.2642C134.754 83.2642 136.345 82.8966 138.366 82.1614C140.386 81.4262 142.162 80.6909 142.162 80.6909C142.162 80.6909 139.223 77.9338 137.999 76.8922C136.774 75.8506 133.468 73.3386 133.468 73.3386C133.468 73.3386 138.182 75.7894 139.713 76.4021C141.244 77.0148 145.713 78.1176 145.713 78.1176C145.713 78.1176 147.489 77.0147 148.224 76.3408C150.918 73.8287 155.387 70.5202 157.224 63.1678C157.285 62.8614 154.652 64.8833 150.611 65.3122C142.958 66.3538 134.937 61.4522 134.937 61.4522C134.937 61.4522 145.591 65.251 152.632 60.9008C157.163 58.0824 158.755 55.6316 158.755 55.6316C158.755 55.6316 159 54.345 159 53.671C158.449 35.7802 144.917 40.498 139.284 42.1523C131.508 44.358 124.773 37.5571 122.631 34.5548Z" fill="#212122"/>
</mask>
<g mask="url(#mask8)">
<mask id="mask9" mask-type="alpha" maskUnits="userSpaceOnUse" x="88" y="25" width="72" height="58">
<path fill-rule="evenodd" clip-rule="evenodd" d="M122.785 34.1745C113.968 22.1656 102.151 25.8418 99.1511 26.6996C89.6609 29.4567 88.4363 38.5246 88.4976 43.2424C88.4976 43.9776 88.8649 44.7129 89.416 45.203C89.967 45.6932 90.7017 45.9383 91.4977 45.877C92.661 45.7545 94.1917 45.5707 95.7224 45.2643C97.4368 44.958 99.1511 44.2227 100.559 44.0389C100.865 43.9776 99.7021 43.0586 99.0286 42.2008C98.049 40.9754 97.3755 39.3824 97.3755 39.3824C97.3755 39.3824 98.2327 41.7719 102.886 43.9776C104.233 44.6516 105.702 47.47 105.702 47.47C105.702 47.47 107.6 44.284 109.682 45.877C110.417 46.4284 110.662 47.6538 110.478 48.6341C110.111 50.9624 107.907 50.7786 107.907 50.8398C108.825 55.2513 109.682 57.7633 111.825 60.8881C115.438 66.0347 118.438 67.7503 118.438 67.7503C118.438 67.7503 121.989 68.9144 125.601 71.7328C130.806 75.7154 134.908 82.8839 134.908 82.8839C134.908 82.8839 136.5 82.5163 138.52 81.781C140.541 81.0458 142.316 80.3106 142.316 80.3106C142.316 80.3106 139.377 77.5534 138.153 76.5119C136.928 75.4703 133.622 72.9582 133.622 72.9582C133.622 72.9582 138.337 75.409 139.867 76.0217C141.398 76.6344 145.868 77.7372 145.868 77.7372C145.868 77.7372 147.643 76.6344 148.378 75.9604C151.072 73.4484 155.542 70.1398 157.378 62.7874C157.44 62.4811 154.807 64.503 150.766 64.9319C143.112 65.9734 135.092 61.0719 135.092 61.0719C135.092 61.0719 145.745 64.8706 152.786 60.5204C157.317 57.702 158.909 55.2513 158.909 55.2513C158.909 55.2513 159.154 53.9646 159.154 53.2906C158.603 35.3999 145.072 40.1176 139.439 41.7719C131.663 43.9776 124.928 37.1767 122.785 34.1745Z" fill="#7945C1"/>
</mask>
<g mask="url(#mask9)">
<path opacity="0.2" fill-rule="evenodd" clip-rule="evenodd" d="M106.168 22.0952C106.274 22.1493 106.316 22.2791 106.262 22.3851C105.593 23.6941 105.595 25.7908 106.148 27.9077C106.7 30.0178 107.785 32.0877 109.212 33.3371C109.779 33.8316 110.776 34.293 112.078 34.8716C112.168 34.9115 112.259 34.9518 112.351 34.9928C113.584 35.5395 115.038 36.1844 116.561 37.0414C119.839 38.886 123.443 41.7171 125.917 46.6991L125.917 46.6993C129.371 53.6739 137.325 58.7815 144.73 59.6927C149.124 60.208 153.305 59.2198 156.245 56.2474C158.348 54.1219 159.837 50.961 160.303 46.5574C159.91 47.4171 159.479 48.2757 158.995 49.095C157.999 50.78 156.769 52.3116 155.169 53.3475C155.169 53.3476 155.169 53.3477 155.169 53.3478L155.052 53.167L155.17 53.3471C155.17 53.3472 155.17 53.3473 155.169 53.3475C154.161 54.0093 152.421 54.6749 150.664 55.1741C148.905 55.6736 147.092 56.0171 145.929 56.0171L145.926 56.0171C141.017 55.9549 138.093 54.1421 134.161 51.0072L134.16 51.0063C131.896 49.1747 130.287 46.7723 128.713 44.3941L128.623 44.2592C127.074 41.9178 125.547 39.6107 123.442 37.8303L123.438 37.8275L123.438 37.8275C121.934 36.5025 120.186 35.5965 118.31 34.9911L118.31 34.991C117.892 34.8553 117.461 34.7261 117.026 34.5958C116.303 34.3793 115.57 34.1595 114.866 33.9008C113.728 33.4827 112.63 32.9509 111.684 32.1305L111.682 32.1284L111.682 32.1284C110.516 31.0877 109.826 29.86 109.321 28.5691C109.004 27.7601 108.755 26.9091 108.508 26.0653C108.365 25.5782 108.223 25.0935 108.069 24.6207C108.032 24.5075 108.094 24.3859 108.207 24.3491C108.32 24.3123 108.442 24.3742 108.479 24.4874C108.642 24.9872 108.787 25.4832 108.93 25.9744C109.173 26.8026 109.411 27.617 109.722 28.4121C110.212 29.6635 110.869 30.8249 111.968 31.8059C111.967 31.8056 111.967 31.8052 111.966 31.8049L111.825 31.9676L111.969 31.8069C111.968 31.8066 111.968 31.8062 111.968 31.8059C112.858 32.5779 113.902 33.0874 115.014 33.4963C115.709 33.7518 116.416 33.9633 117.127 34.1762C117.565 34.3071 118.004 34.4386 118.443 34.581L118.376 34.7861L118.443 34.5811C118.443 34.5811 118.443 34.581 118.443 34.581M123.722 37.5026C125.874 39.3231 127.43 41.6748 128.968 43.9997C129.003 44.0519 129.037 44.1041 129.072 44.1563C130.651 46.5415 132.226 48.8872 134.43 50.6705C138.336 53.7846 141.166 55.5254 145.93 55.5861C147.033 55.5859 148.8 55.2554 150.546 54.7595C152.294 54.2631 153.982 53.6116 154.933 52.9869L154.935 52.9861C156.457 52 157.646 50.5296 158.624 48.8756C159.312 47.7128 159.892 46.4657 160.409 45.2422C160.489 43.8399 160.472 42.3225 160.347 40.6844C160.338 40.5657 160.427 40.4622 160.546 40.4531C160.664 40.4441 160.768 40.5329 160.777 40.6516C160.869 41.8606 160.903 43.0068 160.883 44.0921C160.935 43.9649 160.985 43.8384 161.036 43.7127C161.08 43.6022 161.205 43.5485 161.316 43.5926C161.426 43.6368 161.48 43.7622 161.436 43.8727C161.244 44.3515 161.045 44.8438 160.835 45.342C160.529 50.4761 158.939 54.1371 156.552 56.5505C153.492 59.6437 149.163 60.6467 144.679 60.1207L144.678 60.1205C137.144 59.1935 129.056 54.0079 125.531 46.8906C123.106 42.0083 119.577 39.2332 116.35 37.417C114.846 36.5705 113.409 35.9332 112.174 35.3858C112.083 35.3452 111.992 35.3051 111.903 35.2654C110.624 34.6971 109.555 34.2088 108.928 33.6618L108.928 33.6615C107.416 32.3376 106.297 30.18 105.731 28.0167C105.167 25.86 105.138 23.6371 105.878 22.189C105.932 22.0831 106.062 22.041 106.168 22.0952M102.405 22.807C102.524 22.8122 102.617 22.9127 102.611 23.0316C102.598 23.339 102.514 23.6873 102.421 24.0777C102.399 24.1682 102.376 24.2609 102.354 24.3558C102.234 24.8724 102.109 25.4944 102.068 26.2808C101.986 27.852 102.238 30.103 103.576 33.4804C104.349 35.3836 105.793 36.7316 107.503 37.8371C108.712 38.6186 110.035 39.2686 111.339 39.9087C111.888 40.1784 112.433 40.4464 112.965 40.7217L112.967 40.7226C115.063 41.8331 116.935 43.1404 118.311 45.205L118.312 45.2073L118.312 45.2073C119.419 46.9159 120.367 49.1036 121.336 51.3403C121.611 51.9754 121.888 52.6145 122.17 53.2476C123.457 56.1282 124.866 58.8945 126.791 60.7307C129.164 62.9841 133.979 66.6737 139.466 68.9052C144.958 71.1383 151.068 71.8912 156.091 68.3693C156.189 68.3009 156.323 68.3245 156.391 68.422C156.46 68.5194 156.436 68.6538 156.339 68.7221C151.137 72.3688 144.849 71.5592 139.304 69.3044C133.755 67.0479 128.896 63.3238 126.494 61.0433L126.493 61.0429C124.5 59.1416 123.062 56.3019 121.777 53.4233C121.488 52.7772 121.208 52.1295 120.93 51.4891C119.964 49.2592 119.036 47.118 117.951 45.4428C116.633 43.4645 114.833 42.1989 112.766 41.104C112.252 40.8378 111.717 40.575 111.174 40.3081C109.861 39.6633 108.5 38.9949 107.269 38.199C105.52 37.0683 103.995 35.6594 103.176 33.6417L103.175 33.64C101.82 30.217 101.551 27.9036 101.638 26.2583C101.681 25.4364 101.812 24.7871 101.935 24.2582C101.959 24.1518 101.983 24.0517 102.006 23.957C102.099 23.5707 102.169 23.2748 102.181 23.0129C102.186 22.894 102.287 22.8018 102.405 22.807ZM110.516 23.33C110.526 23.2961 110.544 23.2643 110.571 23.2376C110.576 23.2325 110.587 23.2217 110.6 23.2112L110.6 23.2111C110.605 23.2073 110.623 23.1933 110.65 23.1822C110.662 23.1768 110.692 23.1651 110.733 23.1647C110.78 23.1642 110.847 23.1801 110.898 23.2385C110.942 23.2895 110.949 23.3448 110.951 23.3693C110.952 23.396 110.948 23.417 110.946 23.4271C110.942 23.4479 110.935 23.4637 110.933 23.4692C110.927 23.4826 110.921 23.494 110.918 23.4993C110.908 23.5157 110.893 23.5407 110.879 23.5627C110.875 23.569 110.871 23.5751 110.868 23.5806C110.849 23.611 110.831 23.6399 110.819 23.6633C110.818 23.6645 110.817 23.6657 110.817 23.6668C110.82 23.7343 110.831 23.8149 110.845 23.9109L110.846 23.9192C110.859 24.0138 110.875 24.125 110.877 24.2269C110.995 24.8581 111.283 25.438 111.589 26.0493C112.489 27.7914 113.811 29.2359 115.439 30.382C116.661 31.238 117.987 32.0809 119.366 32.5607C120.109 32.8187 120.853 33.0316 121.595 33.2392C121.677 33.2621 121.759 33.2849 121.841 33.3078C122.499 33.4915 123.156 33.6749 123.8 33.8842C125.252 34.3555 126.658 34.9634 127.943 36.0295L127.945 36.0311C130.001 37.7782 131.505 40.0109 132.992 42.2182C133.142 42.4402 133.291 42.662 133.441 42.883C135.086 45.3111 136.781 47.6527 139.253 49.3119L139.253 49.312C143.101 51.899 147.916 52.0244 152.14 49.9713C155.926 48.107 158.154 43.875 156.086 39.9724C156.03 39.8672 156.07 39.7368 156.175 39.6811C156.28 39.6254 156.411 39.6654 156.467 39.7706C158.684 43.9555 156.259 48.4236 152.33 50.3581L152.329 50.3586C147.982 52.4715 143.001 52.3517 139.012 49.6696C136.464 47.959 134.729 45.5522 133.084 43.1248C132.935 42.9045 132.786 42.6842 132.638 42.4642C131.145 40.2492 129.674 38.0666 127.667 36.3603C126.442 35.3437 125.093 34.757 123.667 34.2941C123.032 34.0877 122.384 33.9069 121.725 33.7228C121.643 33.7 121.561 33.6772 121.479 33.6543C120.737 33.4465 119.981 33.2305 119.224 32.9677L119.224 32.9677C117.786 32.4671 116.419 31.5946 115.191 30.735L115.191 30.7347C113.513 29.5528 112.141 28.0569 111.205 26.246L111.204 26.2434L111.204 26.2434L111.197 26.2305C110.896 25.6265 110.578 24.9905 110.45 24.2862C110.448 24.2735 110.446 24.2606 110.446 24.2477C110.446 24.1742 110.434 24.0834 110.418 23.9718L110.417 23.9636C110.402 23.8624 110.385 23.7424 110.385 23.635C110.385 23.5845 110.401 23.5421 110.408 23.5254C110.417 23.5023 110.428 23.48 110.438 23.4612C110.458 23.4233 110.483 23.3833 110.502 23.3523C110.507 23.344 110.512 23.3366 110.516 23.33ZM110.809 23.6833C110.809 23.6831 110.809 23.6827 110.809 23.6823C110.808 23.6855 110.808 23.686 110.809 23.6833ZM104.304 24.1054C104.416 24.1445 104.476 24.2673 104.436 24.3797C103.967 25.7291 104.019 27.7285 104.81 29.8711C105.6 32.0084 107.121 34.2724 109.568 36.1467L109.57 36.1478C110.897 37.1806 112.391 37.9017 113.9 38.6298C114.245 38.7965 114.591 38.9635 114.936 39.1347C116.778 40.0484 118.575 41.0764 119.953 42.7998C120.761 43.7957 121.411 44.897 122.011 46.0195C122.266 46.4988 122.511 46.9769 122.754 47.4527C123.085 48.1025 123.415 48.748 123.769 49.3862M109.306 36.4883C106.794 34.564 105.223 32.2331 104.406 30.0204C103.59 27.8128 103.519 25.7072 104.029 24.2382C104.068 24.1258 104.191 24.0663 104.304 24.1054M99.191 24.1799C99.2961 24.2358 99.336 24.3662 99.2802 24.4713C96.8854 28.9789 98.3854 32.9401 98.911 34.3283C98.939 34.4022 98.9642 34.4688 98.986 34.5278L98.9861 34.5281C100.319 38.1656 102.375 40.9495 105.464 43.2522C107.611 44.8484 109.662 46.5855 111.032 48.9535C112.171 50.8976 112.932 52.9738 113.682 55.0227C113.826 55.4169 113.97 55.81 114.116 56.201C115.026 58.633 116.026 60.9936 117.747 63.078L117.747 63.0782C120.147 65.9929 123.229 68.0972 126.394 70.2583C127.356 70.9152 128.325 71.5774 129.286 72.2691C133.394 75.2275 137.292 78.7046 139.518 84.5833C139.56 84.6946 139.504 84.819 139.393 84.8611C139.281 84.9033 139.157 84.8472 139.115 84.7359C136.933 78.9734 133.115 75.5576 129.034 72.6188C128.094 71.9419 127.138 71.2891 126.184 70.6378C123.008 68.4701 119.857 66.319 117.414 63.3524C115.645 61.2092 114.625 58.7907 113.713 56.3519C113.564 55.9552 113.419 55.5583 113.274 55.1619C112.523 53.1129 111.778 51.0788 110.66 49.1709L110.659 49.1698C109.335 46.8816 107.345 45.1877 105.207 43.598L105.206 43.5979C102.05 41.2442 99.9426 38.3913 98.5815 34.6766C98.5815 34.6765 98.5814 34.6765 98.5814 34.6764L98.7834 34.6024L98.5815 34.6767C98.5815 34.6767 98.5815 34.6766 98.5815 34.6766C98.5599 34.6178 98.5345 34.5509 98.5062 34.4763C97.9756 33.0771 96.4115 28.9523 98.8996 24.2691C98.9554 24.164 99.0859 24.1241 99.191 24.1799ZM99.9351 24.6467C99.955 24.6477 99.9751 24.6461 99.9946 24.6417C99.9765 24.646 99.9565 24.6481 99.9351 24.6467ZM99.7377 24.4826C99.7205 24.412 99.7395 24.3344 99.7946 24.2792C99.8217 24.2521 99.9109 24.1839 100.029 24.231C100.11 24.2638 100.141 24.3324 100.146 24.3436L100.146 24.3443C100.161 24.3772 100.164 24.4081 100.165 24.4144L100.165 24.4151C100.168 24.4362 100.168 24.4597 100.169 24.4782C100.169 24.5191 100.168 24.5777 100.165 24.6489C100.161 24.7719 100.153 24.9438 100.144 25.1523C100.143 25.1873 100.141 25.2235 100.139 25.2605C100.116 25.7772 100.086 26.4911 100.071 27.2694C100.04 28.8383 100.073 30.6289 100.339 31.6047L100.339 31.6066L100.339 31.6066C101.604 36.4273 104.667 38.5949 107.171 40.3063L107.172 40.3069C107.394 40.4603 107.612 40.6098 107.826 40.7566C110.081 42.3046 111.895 43.5499 113.652 45.9318L113.652 45.9325C114.927 47.6742 115.976 50.1662 116.94 52.6683C117.157 53.2337 117.371 53.7994 117.581 54.358C118.308 56.2848 119.001 58.1253 119.732 59.564C120.63 61.3313 122.542 63.4221 125.103 65.4532C127.659 67.4808 130.844 69.4357 134.267 70.937C141.129 73.9465 148.876 75.1045 154.445 71.4897C154.544 71.4249 154.678 71.4533 154.743 71.5531C154.807 71.6529 154.779 71.7864 154.679 71.8512C148.921 75.5887 140.993 74.3572 134.094 71.3317C130.637 69.8154 127.42 67.8414 124.835 65.7908C122.254 63.7436 120.287 61.6068 119.348 59.7592L119.348 59.7592C118.605 58.2973 117.9 56.4254 117.172 54.494C116.963 53.9392 116.752 53.3795 116.538 52.8232C115.572 50.3166 114.54 47.8765 113.305 46.1871C111.593 43.8662 109.836 42.6597 107.576 41.1082C107.364 40.9628 107.148 40.8144 106.927 40.6618C104.411 38.9422 101.23 36.6985 99.9226 31.717C99.6377 30.6706 99.6093 28.8164 99.6398 27.261C99.6551 26.477 99.6858 25.7587 99.7088 25.2414C99.7105 25.204 99.7121 25.1677 99.7137 25.1325C99.723 24.9237 99.7305 24.7548 99.7346 24.6344C99.7369 24.5635 99.738 24.5132 99.7377 24.4826ZM96.6769 24.9562C96.6549 25.0307 96.6291 25.1162 96.6 25.2126L96.5884 25.2509C96.4005 25.8727 96.0936 26.8885 95.8254 28.147C95.2791 30.7113 94.8877 34.31 96.0078 37.6726L96.0081 37.6735C97.4284 41.8757 99.2952 44.6266 103.157 46.5588C103.263 46.612 103.393 46.5689 103.446 46.4625C103.499 46.356 103.456 46.2266 103.35 46.1733C99.6194 44.3069 97.8126 41.6662 96.4165 37.536C95.3326 34.2815 95.7065 30.7731 96.2469 28.2368C96.5113 26.9961 96.814 25.9944 97.0014 25.3741L97.0126 25.3372C97.059 25.1834 97.0985 25.0523 97.1276 24.9488C97.1552 24.8505 97.1782 24.7608 97.1855 24.6981C97.1874 24.6813 97.1893 24.6584 97.1877 24.6336C97.1867 24.6169 97.1828 24.5601 97.1433 24.5055C97.1198 24.4731 97.0832 24.4412 97.0325 24.4244C96.9835 24.4082 96.9391 24.4121 96.9082 24.4197C96.8541 24.433 96.8177 24.4631 96.8049 24.474C96.7734 24.5009 96.7455 24.536 96.7245 24.5643C96.7007 24.5962 96.6738 24.6357 96.6439 24.6815C96.586 24.7703 96.6021 24.886 96.6769 24.9562ZM96.2504 25.2682C96.3297 25.3569 96.3221 25.4932 96.2333 25.5725C92.2761 29.1092 91.0865 33.2733 91.1544 36.9418C91.2225 40.6189 92.5545 43.7929 93.6319 45.3212C93.9139 45.7047 94.3234 45.8173 94.8414 45.9088C94.8967 45.9185 94.9533 45.928 95.011 45.9377C95.4741 46.0153 96.0091 46.105 96.4621 46.4374C96.4633 46.4383 96.4645 46.4392 96.4656 46.44C96.4669 46.441 96.4681 46.442 96.4693 46.4429C96.7625 46.6777 97.0566 46.8546 97.364 47.0391C97.3754 47.046 97.3862 47.0539 97.3962 47.0627C97.3994 47.0639 97.4138 47.0702 97.4477 47.0782C97.482 47.0862 97.5136 47.0916 97.5506 47.0978C97.574 47.1017 97.5997 47.106 97.6295 47.1116C97.6627 47.1178 97.7004 47.1257 97.7365 47.1367C97.7702 47.1469 97.8175 47.164 97.861 47.1954C97.9078 47.229 97.9648 47.2905 97.976 47.3853C97.9864 47.473 97.9517 47.5441 97.9222 47.5884C97.8562 47.6874 97.7224 47.7142 97.6234 47.6482C97.5806 47.6197 97.5512 47.5784 97.5371 47.5328C97.5259 47.5308 97.513 47.5286 97.499 47.5262C97.4531 47.5184 97.3956 47.5086 97.3493 47.4978C97.294 47.4848 97.2003 47.4599 97.1253 47.3985C96.8267 47.2192 96.5156 47.0316 96.2037 46.7823C95.8393 46.5164 95.4116 46.4435 94.9389 46.3629C94.8821 46.3532 94.8246 46.3434 94.7665 46.3332C94.2444 46.241 93.6747 46.1086 93.2832 45.5744L93.2809 45.5712L93.2809 45.5712C92.1543 43.9741 90.7932 40.7157 90.7235 36.9498C90.6537 33.174 91.8826 28.8829 95.9461 25.2511C96.0349 25.1718 96.1711 25.1795 96.2504 25.2682ZM96.0231 26.6386C96.09 26.7371 96.0644 26.8711 95.9659 26.938C94.7824 27.7422 94.0321 29.0333 93.6322 30.5864C93.2321 32.1397 93.1871 33.94 93.403 35.733C93.6188 37.525 94.0941 39.2995 94.726 40.7977C95.36 42.3008 96.1429 43.505 96.9613 44.1777L96.9633 44.1794C97.3752 44.5265 97.9549 45.0643 98.5826 45.6465C98.8483 45.893 99.1225 46.1475 99.3963 46.3988C100.326 47.2523 101.246 48.0659 101.84 48.4524C101.94 48.5173 101.968 48.6508 101.903 48.7505C101.838 48.8503 101.705 48.8786 101.605 48.8137C100.975 48.4037 100.027 47.563 99.1049 46.7163C98.8249 46.4593 98.5469 46.2013 98.2793 45.9531C97.6566 45.3754 97.0902 44.85 96.6866 44.5098C95.7911 43.7732 94.9747 42.4963 94.3289 40.9652C93.6809 39.4287 93.1956 37.615 92.9752 35.7845C92.7548 33.9549 92.7978 32.0981 93.2148 30.4789C93.6319 28.8593 94.4276 27.4622 95.7237 26.5815C95.8222 26.5146 95.9562 26.5402 96.0231 26.6386ZM135.694 37.7194C135.702 37.7313 135.708 37.7434 135.713 37.7532C135.731 37.7892 135.738 37.8277 135.735 37.865C135.737 37.8716 135.739 37.8785 135.741 37.8858C135.771 37.9824 135.816 38.1177 135.847 38.2103C135.85 38.2188 135.852 38.2275 135.854 38.2362C135.909 38.5106 136.018 38.7316 136.141 38.9786C136.143 38.9824 136.145 38.9862 136.147 38.9901C136.507 39.8322 136.989 40.677 137.533 41.4633C139.16 43.7537 141.512 45.5052 144.17 46.5327L144.171 46.533C146.239 47.3431 148.741 47.4457 150.776 46.6998C152.799 45.9583 154.355 44.3833 154.592 41.815C154.652 40.9161 154.591 40.0848 154.355 39.2566C154.322 39.1422 154.388 39.023 154.503 38.9903C154.617 38.9576 154.736 39.0239 154.769 39.1383C155.022 40.0248 155.084 40.9082 155.022 41.8464L155.021 41.8518L155.021 41.8518C154.768 44.6124 153.079 46.3145 150.924 47.1045C148.78 47.8903 146.17 47.7785 144.014 46.9345C141.284 45.8789 138.861 44.0772 137.181 41.7118L137.18 41.7096C136.623 40.905 136.127 40.0367 135.753 39.1656L135.752 39.1634C135.633 38.9256 135.502 38.6626 135.434 38.3342C135.404 38.243 135.36 38.1104 135.329 38.0124C135.315 37.9655 135.3 37.9134 135.293 37.8793L135.293 37.8788C135.292 37.8722 135.287 37.8491 135.288 37.8224C135.288 37.8141 135.289 37.8001 135.292 37.7833C135.295 37.7687 135.303 37.7367 135.327 37.7029C135.354 37.6639 135.403 37.6215 135.475 37.6116C135.539 37.6028 135.587 37.6242 135.609 37.6365C135.649 37.6581 135.671 37.6871 135.676 37.6932L135.677 37.6937C135.685 37.7042 135.691 37.7137 135.694 37.7194Z" fill="#767676"/>
</g>
</g>
<path fill-rule="evenodd" clip-rule="evenodd" d="M96.0583 50.6692C96.3644 50.6079 96.5481 50.3015 96.4869 49.9952C96.4257 49.6888 96.1195 49.505 95.8134 49.5663C95.5685 49.6275 95.2623 49.6888 94.9562 49.7501C94.6501 49.8114 94.4664 50.1177 94.5276 50.4241C94.5888 50.7304 94.8949 50.9142 95.2011 50.853C95.5072 50.7917 95.8134 50.6692 96.0583 50.6692Z" fill="#4C277E"/>
<path d="M158.815 60.1045C156.917 61.2074 154.958 62.1877 152.876 62.9229C150.856 63.6582 148.713 64.0258 146.57 64.0258C144.427 64.0258 142.406 63.5356 140.447 62.7391C138.488 61.9426 136.651 60.8397 134.875 59.6756L133.59 61.8201C135.549 62.8616 137.631 63.842 139.835 64.5159C142.039 65.1899 144.366 65.4963 146.631 65.2512C148.896 65.0674 151.101 64.3934 153.121 63.4743C155.142 62.5553 157.04 61.3299 158.815 60.1045Z" fill="#212122"/>
<path d="M115.038 68.6823C112.711 66.5378 111.303 63.5969 110.691 60.656C110.017 57.6537 110.017 54.529 110.262 51.4655H107.752C107.935 54.7128 108.364 57.9601 109.466 61.0236C110.568 64.0258 112.466 66.8442 115.038 68.6823Z" fill="#212122"/>
<path d="M97.6496 48.4021C96.9761 48.157 96.3026 47.8507 95.5066 47.8507C94.7106 47.8507 93.9759 48.0957 93.3024 48.3408L93.5474 48.8923C94.1596 48.5246 94.7719 48.2183 95.5066 48.157C96.2413 48.0957 96.9761 48.2183 97.6496 48.4021Z" fill="#4C277E"/>
</svg>
